<?xml version="1.0" encoding="UTF-8" standalone="no"?>
<!DOCTYPE svg PUBLIC "-//W3C//DTD SVG 1.1//EN" "http://www.w3.org/Graphics/SVG/1.1/DTD/svg11.dtd">
<svg width="100%" height="100%" viewBox="0 0 1223 1223" version="1.1" xmlns="http://www.w3.org/2000/svg" xmlns:xlink="http://www.w3.org/1999/xlink" xml:space="preserve" xmlns:serif="http://www.serif.com/" style="fill-rule:evenodd;clip-rule:evenodd;stroke-linejoin:round;stroke-miterlimit:2;">
    <g transform="matrix(1,0,0,1,-158.225,-176.188)">
        <g transform="matrix(4.16667,0,0,4.16667,0,0)">
            <path d="M331.36,188.978C331.36,269.994 265.684,335.671 184.667,335.671C103.651,335.671 37.974,269.994 37.974,188.978C37.974,107.961 103.651,42.285 184.667,42.285C265.684,42.285 331.36,107.961 331.36,188.978Z" style="fill:rgb(0,174,239);fill-rule:nonzero;"/>
            <clipPath id="_clip1">
                <path d="M331.36,188.978C331.36,269.994 265.684,335.671 184.667,335.671C103.651,335.671 37.974,269.994 37.974,188.978C37.974,107.961 103.651,42.285 184.667,42.285C265.684,42.285 331.36,107.961 331.36,188.978Z" clip-rule="nonzero"/>
            </clipPath>
            <g clip-path="url(#_clip1)">
                <path d="M480.102,513.323C476.712,655.724 350.014,768.212 197.113,764.572C44.213,760.932 -76.988,642.543 -73.598,500.142C-70.208,357.742 56.49,245.255 209.39,248.895C362.29,252.535 483.492,370.923 480.102,513.323Z" style="fill:rgb(140,198,63);fill-rule:nonzero;"/>
            </g>
        </g>
        <g transform="matrix(4.16667,0,0,4.16667,0,0)">
            <path d="M270.668,282.574C271.131,295.959 230.795,308.217 180.574,309.955C130.353,311.692 89.266,302.249 88.803,288.865C88.339,275.48 128.677,263.221 178.897,261.484C229.118,259.748 270.205,269.19 270.668,282.574Z" style="fill:rgb(57,181,74);fill-rule:nonzero;"/>
        </g>
        <g transform="matrix(4.16667,0,0,4.16667,0,0)">
            <path d="M269.093,162.387C269.093,160.686 286.289,152.789 286.289,152.789C286.289,152.789 257.754,161.521 255.675,159.78C252.807,157.379 256.986,155.375 264.179,147.647C273.817,137.293 279.675,123.647 279.675,123.647C279.675,123.647 270.415,136.159 260.021,145.001C246.016,156.917 233.99,166.537 233.99,166.537C233.99,166.537 217.106,182.015 214.998,175.324C211.738,164.978 215.423,155.339 219.959,143.867C221.142,140.875 224.589,133.891 226.762,130.828C228.928,127.776 241.88,116.655 241.88,116.655C241.88,116.655 230.541,124.214 228.085,123.269C225.628,122.324 228.085,117.789 229.975,108.339C231.864,98.891 235.833,82.639 235.833,82.639C227.518,98.324 223.549,115.899 220.147,125.726C216.746,135.552 206.353,148.781 206.353,148.781C206.353,148.781 202.195,135.214 201.25,132.946C200.305,130.678 197.849,116.465 201.25,108.151C204.651,99.836 208.066,99.172 212.211,95.246C216.557,91.128 221.093,85.096 221.093,85.096L211.738,91.561C211.738,91.561 207.297,93.978 207.864,89.442C208.432,84.907 208.432,66.198 208.432,66.198C208.432,66.198 205.597,86.986 202.762,93.033C199.927,99.08 195.014,105.356 190.667,104.182C187.974,103.455 184.431,92.356 184.62,85.419C184.762,80.221 187.455,62.986 187.455,62.986C187.455,62.986 183.111,83.398 179.801,78.994C177.061,75.348 171.77,58.261 171.77,58.261C174.982,78.86 178.951,86.797 180.463,99.836C181.975,112.875 181.029,130.828 181.029,130.828C181.029,130.828 168.746,119.3 165.534,112.497C162.321,105.694 161.943,101.159 160.998,92.655C160.053,84.151 155.518,74.513 155.518,74.513C159.486,104.938 155.329,105.316 153.628,105.694C151.927,106.072 148.62,106.206 142.006,103.56C135.392,100.915 127.549,88.309 127.549,88.309C128.494,94.923 133.408,102.671 133.408,102.671C125.849,99.836 111.864,91.71 111.864,91.71C117.534,97.379 126.96,104.174 144.746,111.363C163.077,118.773 168.368,132.568 171.581,142.167C174.733,151.585 174.793,161.056 173.471,164.269C172.147,167.482 169.975,168.088 167.801,168.048C165.902,168.014 144.675,163.396 139.833,161.623C124.715,156.088 112.809,137.19 112.809,137.19C112.809,137.19 124.767,157.348 123.203,158.45C117.439,162.513 95.423,148.584 95.423,148.584C106.384,160.111 133.597,168.804 133.597,168.804C133.597,168.804 140.21,172.584 129.817,173.528C122.912,174.156 100.525,175.419 100.525,175.419C116.305,178.009 132.404,177.089 142.951,178.671C159.958,181.221 168.179,190.678 171.014,199.182C172.129,202.529 172.645,232.689 171.97,247.558C171.781,250.226 171.157,255.459 169.077,260.363C165.25,269.387 153.345,271.276 153.345,271.276C160.715,272.316 166.667,267.402 169.03,269.387C171.392,271.371 171.864,279.686 171.864,279.686C173.093,272.978 173.187,268.726 174.982,266.174C176.947,263.383 180.179,261.261 183.864,262.017C187.615,262.786 187.362,266.283 186.038,269.198C184.384,272.836 184.431,277.797 184.431,277.797C184.573,274.253 193.455,265.182 198.604,266.458C201.251,267.113 201.197,269.447 199.833,272.411C198.18,276.001 192.463,281.623 192.463,281.623C193.88,281.623 198.557,278.647 200.777,276.568C203.481,274.036 204.085,276.663 204.085,276.663C205.322,281.356 207.585,284.65 210.321,288.473C210.321,288.473 203.518,269.009 210.604,265.608C212.776,264.565 215,269.855 217.313,273.356C220.809,278.647 225.911,279.639 225.911,279.639C222.888,277.23 220.135,274.033 220.998,271.371C221.55,269.67 225.27,269.961 228.746,269.765C232.414,269.558 235.833,268.915 235.833,268.915C228.463,267.591 225.044,266.689 221.281,263.907C214.573,258.947 217.909,210.117 218.825,205.993C221.281,194.93 232.809,183.741 241.691,177.694C250.573,171.647 260.777,169.757 266.069,168.245C271.36,166.734 300.841,162.954 300.841,162.954C300.841,162.954 269.093,164.088 269.093,162.387Z" style="fill:rgb(103,66,33);fill-rule:nonzero;"/>
        </g>
        <g transform="matrix(4.16667,0,0,4.16667,0,0)">
            <path d="M241.691,177.694C250.573,171.647 260.777,169.757 266.069,168.245C271.36,166.734 300.841,162.954 300.841,162.954C300.841,162.954 269.093,164.088 269.093,162.387C269.093,160.686 286.289,152.789 286.289,152.789C286.289,152.789 257.754,161.521 255.675,159.781C252.807,157.379 256.986,155.375 264.179,147.647C273.817,137.293 279.675,123.647 279.675,123.647C279.675,123.647 270.415,136.159 260.021,145.001C246.016,156.917 233.99,166.537 233.99,166.537C233.99,166.537 217.106,182.015 214.998,175.324C211.738,164.978 215.423,155.339 219.959,143.867C221.142,140.875 224.589,133.891 226.762,130.828C228.928,127.776 241.88,116.655 241.88,116.655C241.88,116.655 230.541,124.214 228.085,123.269C225.628,122.324 228.085,117.789 229.975,108.339C231.864,98.891 235.833,82.639 235.833,82.639C227.518,98.324 223.549,115.899 220.147,125.726C216.746,135.552 206.353,148.781 206.353,148.781C206.353,148.781 202.195,135.214 201.25,132.946C200.305,130.678 197.849,116.465 201.25,108.151C204.651,99.836 208.066,99.172 212.211,95.246C216.557,91.128 221.093,85.096 221.093,85.096L211.738,91.561C211.738,91.561 207.297,93.978 207.864,89.442C208.432,84.907 208.432,66.198 208.432,66.198C208.432,66.198 205.597,86.986 202.762,93.033C200.105,98.7 195.623,104.568 191.492,104.317C192.17,105.72 192.746,107.286 192.746,108.568C192.746,111.686 191.612,144.001 193.313,153.356C195.014,162.71 199.833,183.119 200.116,205.513C200.358,224.657 199.772,257.677 199.597,266.858C201.2,267.819 200.996,269.884 199.833,272.411C198.18,276.001 192.463,281.623 192.463,281.623C193.88,281.623 198.557,278.647 200.777,276.568C203.481,274.036 204.085,276.663 204.085,276.663C205.322,281.356 207.585,284.65 210.321,288.473C210.321,288.473 203.518,269.009 210.604,265.608C212.776,264.565 215,269.855 217.313,273.356C220.809,278.647 225.911,279.639 225.911,279.639C222.888,277.23 220.135,274.033 220.998,271.371C221.55,269.67 225.27,269.961 228.746,269.765C232.414,269.558 235.833,268.915 235.833,268.915C228.463,267.591 225.044,266.689 221.281,263.907C214.573,258.947 217.909,210.117 218.825,205.993C221.281,194.93 232.809,183.741 241.691,177.694Z" style="fill:rgb(96,56,18);fill-rule:nonzero;"/>
        </g>
        <g transform="matrix(4.16667,0,0,4.16667,0,0)">
            <path d="M173.471,164.269C172.147,167.482 169.975,168.088 167.801,168.048C165.902,168.014 144.675,163.396 139.833,161.623C124.715,156.088 112.809,137.19 112.809,137.19C112.809,137.19 117.963,145.879 121.061,152.159C123.512,155.498 125.925,158.657 126.841,159.45C128.966,161.293 136.903,164.978 138.463,165.545C140.021,166.111 161.707,171.922 164.258,172.206C166.809,172.489 170.494,172.064 172.62,171.072C174.422,170.231 174.593,164.005 174.172,160.828C174.04,162.294 173.798,163.474 173.471,164.269Z" style="fill:rgb(124,83,52);fill-rule:nonzero;"/>
        </g>
        <g transform="matrix(4.16667,0,0,4.16667,0,0)">
            <path d="M134.353,103.465C136.903,105.167 144.699,109.135 149.943,109.276C155.187,109.419 156.463,108.001 156.746,107.009C156.954,106.282 157.768,105.624 156.963,99.533C156.352,105.257 154.594,105.479 153.628,105.694C151.927,106.072 148.62,106.206 142.006,103.56C135.392,100.915 127.549,88.309 127.549,88.309C128.494,94.923 133.408,102.671 133.408,102.671C133.243,102.609 133.071,102.541 132.9,102.475C133.311,102.772 133.784,103.087 134.353,103.465Z" style="fill:rgb(124,83,52);fill-rule:nonzero;"/>
        </g>
        <g transform="matrix(4.16667,0,0,4.16667,0,0)">
            <path d="M217.124,205.938C217.124,205.938 217.79,202.34 219.25,197.717C220.951,192.332 229.313,184.678 238.101,178.3C238.101,178.3 228.037,183.686 225.062,185.812C222.593,187.575 218.399,192.615 217.549,197.293C216.928,200.711 216.273,209.623 216.273,209.623L217.124,205.938Z" style="fill:rgb(59,35,20);fill-rule:nonzero;"/>
        </g>
        <g transform="matrix(4.16667,0,0,4.16667,0,0)">
            <path d="M214.998,241.797C214.998,241.797 215.707,255.545 216.699,258.521C217.691,261.498 218.541,265.041 221.943,266.883C221.943,266.883 217.266,265.749 215.423,261.072C213.581,256.395 214.715,235.56 214.715,235.56L214.998,241.797Z" style="fill:rgb(59,35,20);fill-rule:nonzero;"/>
        </g>
        <g transform="matrix(4.16667,0,0,4.16667,0,0)">
            <path d="M245.896,173.623C245.896,173.623 257.659,167.528 270.557,165.97C270.557,165.97 263.045,165.828 257.659,167.528C252.273,169.23 245.896,173.623 245.896,173.623Z" style="fill:rgb(59,35,20);fill-rule:nonzero;"/>
        </g>
        <g transform="matrix(4.16667,0,0,4.16667,0,0)">
            <path d="M256.81,164.127L267.014,162.426L278.069,156.19L256.81,164.127Z" style="fill:rgb(59,35,20);fill-rule:nonzero;"/>
        </g>
        <g transform="matrix(4.16667,0,0,4.16667,0,0)">
            <path d="M215.707,194.458C215.707,194.458 213.439,218.411 213.297,225.356C213.155,232.3 213.155,226.064 213.155,226.064C213.155,226.064 212.305,211.891 212.73,205.797C213.155,199.702 216.132,190.206 216.415,189.497L215.707,194.458Z" style="fill:rgb(59,35,20);fill-rule:nonzero;"/>
        </g>
        <g transform="matrix(4.16667,0,0,4.16667,0,0)">
            <path d="M220.384,269.009C220.384,269.009 216.132,265.891 215.14,264.332C214.147,262.773 213.155,260.08 212.589,257.245C212.021,254.411 211.313,224.93 211.313,224.93C211.313,224.93 210.321,244.489 210.321,246.048C210.321,247.608 210.746,258.379 211.171,260.363C211.597,262.348 212.872,266.458 220.384,269.009Z" style="fill:rgb(59,35,20);fill-rule:nonzero;"/>
        </g>
        <g transform="matrix(4.16667,0,0,4.16667,0,0)">
            <path d="M208.053,242.647C208.053,242.647 209.188,228.757 209.188,227.056C209.188,225.356 208.903,204.663 208.903,204.663C208.903,204.663 207.062,221.954 207.062,222.663C207.062,223.371 208.053,242.647 208.053,242.647Z" style="fill:rgb(59,35,20);fill-rule:nonzero;"/>
        </g>
        <g transform="matrix(4.16667,0,0,4.16667,0,0)">
            <path d="M229.029,181.702C229.029,181.702 239.518,175.182 240.51,174.332C241.502,173.482 250.573,168.521 253.407,167.104C253.407,167.104 251.565,166.253 247.313,168.663C243.062,171.072 233.14,177.167 230.305,179.576C227.471,181.985 229.029,181.702 229.029,181.702Z" style="fill:rgb(59,35,20);fill-rule:nonzero;"/>
        </g>
        <g transform="matrix(4.16667,0,0,4.16667,0,0)">
            <path d="M214.715,179.434C214.715,179.434 213.723,179.151 212.589,176.741C211.455,174.332 210.888,166.537 211.029,163.419C211.171,160.3 215.281,148.253 215.281,148.253C215.281,148.253 210.463,157.182 210.463,158.6C210.463,160.017 208.762,164.127 209.045,166.395C209.329,168.663 209.896,173.765 210.746,175.891C211.597,178.017 214.856,180.001 214.856,180.001L214.715,179.434Z" style="fill:rgb(59,35,20);fill-rule:nonzero;"/>
        </g>
        <g transform="matrix(4.16667,0,0,4.16667,0,0)">
            <path d="M206.919,168.663C206.919,169.088 208.762,175.608 208.762,175.608C208.762,175.608 210.037,179.859 211.88,181.56C211.88,181.56 209.471,181.135 208.195,178.867C206.919,176.6 206.919,168.663 206.919,168.663Z" style="fill:rgb(59,35,20);fill-rule:nonzero;"/>
        </g>
        <g transform="matrix(4.16667,0,0,4.16667,0,0)">
            <path d="M200.116,134.08C200.116,134.08 197.849,125.717 197.99,123.45C198.132,121.182 198.415,112.395 199.407,108.568C199.407,108.568 196.998,114.096 196.998,116.505C196.998,118.915 195.864,123.875 196.715,126.993C197.565,130.111 199.975,138.048 199.975,138.048L200.116,134.08Z" style="fill:rgb(59,35,20);fill-rule:nonzero;"/>
        </g>
        <g transform="matrix(4.16667,0,0,4.16667,0,0)">
            <path d="M196.147,129.828C196.147,129.828 198.273,137.482 198.273,138.048C198.273,138.615 199.124,142.867 199.407,144.852C199.691,146.836 200.541,155.339 200.541,155.339C200.541,155.339 198.273,147.97 197.281,144.001C196.289,140.033 196.147,129.828 196.147,129.828Z" style="fill:rgb(59,35,20);fill-rule:nonzero;"/>
        </g>
        <g transform="matrix(4.16667,0,0,4.16667,0,0)">
            <path d="M183.534,112.253L183.534,124.017C183.534,126.426 182.825,132.379 183.108,136.064C183.392,139.749 183.392,136.631 183.392,136.631C183.392,136.631 184.525,129.119 184.667,128.694C184.809,128.269 184.809,123.45 185.376,120.332C185.943,117.214 184.242,104.316 183.534,100.489C182.825,96.663 181.975,92.694 181.975,92.694L183.534,112.253Z" style="fill:rgb(124,83,52);fill-rule:nonzero;"/>
        </g>
        <g transform="matrix(4.16667,0,0,4.16667,0,0)">
            <path d="M171.061,122.6L176.73,129.828L179.99,135.072L172.336,126.852L167.518,118.631L171.061,122.6Z" style="fill:rgb(124,83,52);fill-rule:nonzero;"/>
        </g>
        <g transform="matrix(4.16667,0,0,4.16667,0,0)">
            <path d="M169.644,174.899C169.644,174.899 173.187,174.19 174.604,172.489C176.021,170.789 176.588,166.395 176.588,165.686C176.588,164.978 176.305,151.23 176.305,151.23C176.305,151.23 177.439,158.883 177.581,161.151C177.723,163.419 177.723,166.253 177.723,168.379C177.723,170.505 177.581,172.915 175.597,174.332C173.612,175.749 169.644,174.899 169.644,174.899Z" style="fill:rgb(124,83,52);fill-rule:nonzero;"/>
        </g>
        <g transform="matrix(4.16667,0,0,4.16667,0,0)">
            <path d="M172.195,136.773C172.195,136.773 173.754,141.308 174.888,143.151C176.021,144.993 177.014,147.828 177.439,148.678C177.864,149.528 178.856,154.631 178.998,155.056C179.14,155.482 179.565,161.434 179.565,161.434C179.565,161.434 181.124,152.222 179.565,149.387C178.006,146.552 172.195,136.773 172.195,136.773Z" style="fill:rgb(124,83,52);fill-rule:nonzero;"/>
        </g>
        <g transform="matrix(4.16667,0,0,4.16667,0,0)">
            <path d="M137.187,199.829C137.187,199.829 137.396,207.975 141.05,213.196L145.019,201.395L137.187,199.829Z" style="fill:rgb(169,82,57);fill-rule:nonzero;"/>
        </g>
        <g transform="matrix(4.16667,0,0,4.16667,0,0)">
            <path d="M180.986,212.325C180.995,212.17 181.009,212.016 181.015,211.86C181.556,198.657 173.06,187.588 162.039,187.136C151.017,186.685 141.644,197.022 141.104,210.225C141.081,210.774 141.097,211.313 141.105,211.854C139.461,212.06 138.179,213.619 138.179,215.533C138.179,217.588 139.651,219.253 141.468,219.253C141.712,219.253 141.948,219.218 142.177,219.161C144.761,228.085 151.68,234.605 160.08,234.949C168.84,235.308 176.553,228.848 179.624,219.553C179.774,219.577 179.925,219.606 180.082,219.606C181.898,219.606 183.371,217.94 183.371,215.885C183.371,214.188 182.36,212.772 180.986,212.325Z" style="fill:rgb(251,176,64);fill-rule:nonzero;"/>
        </g>
        <g transform="matrix(4.16667,0,0,4.16667,0,0)">
            <path d="M156.648,188.958C155.524,188.828 154.406,188.894 153.307,189.131C146.452,192.714 141.492,200.728 141.104,210.225C141.081,210.774 141.097,211.313 141.105,211.854C139.461,212.06 138.179,213.619 138.179,215.533C138.179,217.588 139.651,219.253 141.468,219.253C141.712,219.253 141.948,219.218 142.177,219.161C144.761,228.085 151.68,234.605 160.08,234.949C160.705,234.974 161.322,234.956 161.935,234.914C165.777,230.611 168.655,223.992 169.539,216.341C171.167,202.228 165.396,189.968 156.648,188.958Z" style="fill:rgb(254,199,115);fill-rule:nonzero;"/>
        </g>
        <g transform="matrix(4.16667,0,0,4.16667,0,0)">
            <path d="M182.907,214.036C183.312,212.992 183.69,211.879 183.998,210.716C185.408,205.39 185.527,201.068 183.606,198.419C181.335,195.286 179.612,195.13 179.612,195.13C179.612,195.13 180.814,187.883 170.331,185.182C159.992,182.519 153.251,186.769 147.342,187.062C141.821,187.336 137.669,186.24 137.669,186.24C138.47,188.061 139.664,190.069 141.077,191.135C141.077,191.135 132.069,190.352 128.662,186.318C128.662,186.318 130.738,192.31 132.853,194.346C130.828,194.497 129.284,194.105 128.153,193.25C128.153,193.25 133.633,202.489 142.486,202.414C152.99,202.324 157.03,196.3 166.171,198.639C166.171,198.639 165.25,202.82 169.665,205.39C174.151,208.002 175.852,210.794 174.991,216.982C174.991,216.982 178.573,215.505 179.429,212.622C179.429,212.622 181.727,212.008 182.907,214.036Z" style="fill:rgb(241,90,41);fill-rule:nonzero;"/>
        </g>
        <g transform="matrix(4.16667,0,0,4.16667,0,0)">
            <path d="M116.196,215.285L118.18,219.88L140.424,226.668C140.424,226.668 130.085,217.791 116.196,215.285Z" style="fill:white;fill-rule:nonzero;"/>
        </g>
        <g transform="matrix(4.16667,0,0,4.16667,0,0)">
            <path d="M113.48,218.313C113.48,218.313 131.11,219.615 140.358,226.667L146.898,238.051L118.18,224.475L113.48,218.313Z" style="fill:rgb(209,211,212);fill-rule:nonzero;"/>
        </g>
        <g transform="matrix(4.16667,0,0,4.16667,0,0)">
            <path d="M150.005,215.435C150.005,216.765 148.927,217.843 147.597,217.843C146.267,217.843 145.188,216.765 145.188,215.435C145.188,214.105 146.267,213.026 147.597,213.026C148.927,213.026 150.005,214.105 150.005,215.435Z" style="fill:rgb(35,31,32);fill-rule:nonzero;"/>
        </g>
        <g transform="matrix(4.16667,0,0,4.16667,0,0)">
            <path d="M164.9,214.691C164.9,216.129 163.734,217.295 162.296,217.295C160.857,217.295 159.691,216.129 159.691,214.691C159.691,213.253 160.857,212.087 162.296,212.087C163.734,212.087 164.9,213.253 164.9,214.691Z" style="fill:rgb(35,31,32);fill-rule:nonzero;"/>
        </g>
        <g transform="matrix(4.16667,0,0,4.16667,0,0)">
            <path d="M140.424,226.668C140.424,226.668 149.065,217.125 174.442,220.154L176.518,250.935L140.424,226.668Z" style="fill:white;fill-rule:nonzero;"/>
        </g>
        <g transform="matrix(4.16667,0,0,4.16667,0,0)">
            <path d="M139.902,227.503C139.902,227.503 149.81,217.765 175.5,222.777L177.81,253.546L139.902,227.503Z" style="fill:rgb(209,211,212);fill-rule:nonzero;"/>
        </g>
        <g transform="matrix(4.16667,0,0,4.16667,0,0)">
            <path d="M111.392,222.073C111.392,222.073 126.326,218.104 140.424,226.668C140.424,226.668 148.115,234.438 154.694,256.264C154.694,256.264 147.898,255.492 135.014,255.922C135.014,255.922 123.61,231.576 111.392,222.073Z" style="fill:rgb(237,28,36);fill-rule:nonzero;"/>
        </g>
        <g transform="matrix(4.16667,0,0,4.16667,0,0)">
            <path d="M138.805,243.742L135.254,245.726C135.254,245.726 134.576,245.309 134.889,244.787L138.805,239.983C138.805,239.983 139.327,238.834 138.388,238.103C138.164,237.929 137.801,237.922 137.423,238.159C137.423,238.159 132.864,243.19 132.395,242.928C132.154,242.794 132.464,242.424 132.651,242.222L137.282,236.836C137.588,236.363 137.653,235.628 137.291,235.283C136.242,234.285 135.15,235.545 135.15,235.545L130.085,240.922L132.817,235.324C132.817,235.324 133.609,233.679 132.226,233.195C131.182,232.829 130.188,234.605 130.188,234.605L125.751,241.497C125.751,241.497 125.595,239.565 124.237,238.051C122.879,236.537 121.939,237.476 121.939,237.476C121.939,237.476 121.365,237.946 122.41,239.983C123.467,242.045 122.984,244.317 123.088,244.787C123.193,245.256 122.879,248.807 125.125,251.47C125.125,251.47 127.475,253.611 131.234,252.41C131.234,252.41 138.753,246.458 140.163,244.891C140.163,244.891 140.633,243.011 138.805,243.742Z" style="fill:rgb(251,176,64);fill-rule:nonzero;"/>
        </g>
        <g transform="matrix(4.16667,0,0,4.16667,0,0)">
            <path d="M127.029,246.899C125.127,246.36 123.773,245.279 123.078,244.619C123.08,244.68 123.08,244.748 123.088,244.787C123.193,245.256 122.879,248.807 125.125,251.47C125.125,251.47 127.475,253.611 131.234,252.41C131.234,252.41 138.753,246.458 140.163,244.891C140.163,244.891 140.244,244.56 140.205,244.229C139.029,245.142 136.438,247.016 134.73,247.23C132.463,247.513 129.864,247.702 127.029,246.899Z" style="fill:rgb(247,147,29);fill-rule:nonzero;"/>
        </g>
        <g transform="matrix(4.16667,0,0,4.16667,0,0)">
            <path d="M128.612,278.717C128.612,278.717 128.591,278.809 128.557,278.961C128.067,280.595 127.537,282.223 127.004,283.583C125.125,288.386 118.441,292.303 118.441,292.303C118.441,292.303 118.208,288.869 118.988,286.466C119.974,286.513 120.675,286.513 120.675,286.513C120.675,286.513 122.376,281.339 123.864,278.859C123.864,278.859 123.852,278.858 123.842,278.856C124.867,277.307 125.776,275.777 126.221,274.497C127.475,270.894 127.422,268.649 127.422,268.649L130.764,270.633C130.764,270.633 129.834,274.659 128.629,278.719L128.612,278.717ZM171.857,252.854L156.389,256.927C152.003,255.282 147.579,254.07 143.504,253.95C140.842,253.872 138.805,255.125 138.805,255.125C130.761,251.765 128.728,250.374 122.879,250.687C119.356,250.876 117.938,253.657 117.136,255.908C115.517,260.451 114.107,270.111 112.958,275.542C112.086,279.667 110.661,284.627 108.155,286.272C106.855,287.125 101.419,289.248 98.651,289.379C96.272,289.491 96.51,291.833 96.51,291.833C96.51,291.833 97.293,293.974 100.375,294.809C102.504,295.387 104.834,295.224 106.536,294.914C110.4,294.209 113.22,294.914 113.22,294.914L111.026,296.062C109.617,297.394 110.557,298.882 112.332,299.874C114.001,300.807 116.173,301.384 120.164,300.814C122.723,300.448 124.343,298.917 128.205,299.039C131.926,299.156 132.88,296.564 132.957,294.914C133.028,293.383 133.316,292.13 134.292,290.419C135.108,290.457 135.876,290.451 136.549,290.411C136.549,290.411 137.034,288.105 138.038,286.23C139.667,283.182 143.713,277.682 143.713,277.682C143.713,277.682 149.154,282.071 157.864,282.643C172.171,283.583 174.338,279.536 177.393,273.453C180.29,267.684 181.465,261.548 181.465,261.548L171.857,252.854Z" style="fill:rgb(42,56,144);fill-rule:nonzero;"/>
        </g>
        <g transform="matrix(4.16667,0,0,4.16667,0,0)">
            <path d="M179.362,268.852L177.51,267.308C177.51,267.308 175.384,273.119 173.683,274.678C171.982,276.237 170.777,276.804 167.66,276.946C164.542,277.088 160.573,274.891 159.227,274.182C157.88,273.473 152.21,269.009 151.077,268.159C149.943,267.308 148.951,266.528 148.951,266.528L149.943,270.993C149.943,270.993 147.604,268.371 146.825,266.883C146.045,265.395 146.116,264.402 145.479,263.623C144.841,262.843 143.282,263.482 142.856,263.907C142.431,264.332 142.219,266.387 140.73,269.434C139.242,272.482 136.408,276.521 135.486,278.293C134.565,280.064 133.36,284.6 132.581,286.726C131.801,288.852 130.313,290.056 130.313,290.269C130.313,290.269 131.841,290.802 133.754,291.474C133.906,291.138 134.08,290.791 134.292,290.419C135.108,290.457 135.876,290.451 136.549,290.411C136.549,290.411 137.034,288.105 138.038,286.23C139.667,283.182 143.713,277.682 143.713,277.682C143.713,277.682 149.154,282.071 157.864,282.643C172.171,283.583 174.338,279.536 177.393,273.453C178.171,271.902 178.821,270.329 179.362,268.852Z" style="fill:rgb(31,40,115);fill-rule:nonzero;"/>
        </g>
        <g transform="matrix(4.16667,0,0,4.16667,0,0)">
            <path d="M133.786,262.985C133.308,262.855 131.021,262.631 129.321,261.568C126.22,259.63 129.27,263.686 128.867,263.473C126.514,262.228 123.974,260.757 123.723,260.505C123.297,260.08 122.943,261.498 122.943,261.498C122.943,261.498 121.951,265.324 121.455,268.797C120.958,272.269 118.885,279.187 117.912,281.482C116.919,283.82 115.715,286.017 115.715,286.017L118.865,286.887C118.903,286.744 118.944,286.603 118.988,286.466C119.974,286.513 120.675,286.513 120.675,286.513C120.675,286.513 122.376,281.339 123.864,278.859C123.864,278.859 123.852,278.858 123.842,278.856C124.867,277.307 125.776,275.777 126.221,274.497C127.475,270.894 127.422,268.649 127.422,268.649L130.764,270.633C130.764,270.633 130.55,271.557 130.198,272.958L133.786,262.985Z" style="fill:rgb(31,40,115);fill-rule:nonzero;"/>
        </g>
        <g transform="matrix(4.16667,0,0,4.16667,0,0)">
            <path d="M125.919,288.71C125.142,288.271 124.714,287.817 124.49,287.389C123.217,288.794 121.765,289.993 120.597,290.852L124.077,294.45L131.447,294.946C131.447,294.946 132.259,294.482 133.035,293.998C133.172,292.86 133.518,291.789 134.286,290.438C131.952,290.385 128.324,290.066 125.919,288.71Z" style="fill:rgb(255,254,243);fill-rule:nonzero;"/>
        </g>
        <g transform="matrix(4.16667,0,0,4.16667,0,0)">
            <path d="M110.329,283.749C110.314,283.739 110.304,283.731 110.29,283.72C109.682,284.829 108.978,285.732 108.155,286.272C108.051,286.34 107.913,286.418 107.761,286.501L111.817,289.985L118.414,290.562C118.439,289.368 118.579,287.787 118.998,286.489C116.915,286.367 113.275,285.84 110.329,283.749Z" style="fill:rgb(255,254,243);fill-rule:nonzero;"/>
        </g>
        <g transform="matrix(4.16667,0,0,4.16667,0,0)">
            <path d="M178.465,271.127C180.582,266.149 181.465,261.548 181.465,261.548L171.858,252.854L156.389,256.927C155.998,256.78 155.606,256.642 155.215,256.503C155.215,256.503 158.908,257.788 160.579,258.624C160.579,258.624 165.696,258.102 171.858,261.757C176.079,264.26 177.799,268.626 178.465,271.127Z" style="fill:rgb(0,97,40);fill-rule:nonzero;"/>
        </g>
        <g transform="matrix(4.16667,0,0,4.16667,0,0)">
            <path d="M120.164,300.814C122.723,300.448 124.343,298.917 128.205,299.039C131.926,299.156 132.88,296.564 132.957,294.914C132.993,294.13 133.271,292.632 133.479,291.898C132.422,292.72 130.563,293.166 128.858,293.269C126.273,293.425 123.767,291.467 123.062,290.841C122.743,290.557 121.887,290.406 121.299,290.321C119.711,291.558 118.441,292.303 118.441,292.303C118.441,292.303 118.333,290.691 118.514,288.904C117.829,289.063 116.918,289.185 115.778,289.118C113.115,288.961 112.253,288.021 111.392,287.081C110.53,286.141 109.355,286.102 108.339,286.132C108.277,286.178 108.218,286.23 108.155,286.272C106.855,287.125 101.419,289.248 98.651,289.379C96.272,289.491 96.51,291.833 96.51,291.833C96.51,291.833 97.293,293.974 100.375,294.809C102.504,295.387 104.834,295.224 106.536,294.914C110.4,294.209 113.219,294.914 113.219,294.914L111.026,296.062C109.617,297.394 110.557,298.882 112.332,299.874C114.001,300.807 116.173,301.384 120.164,300.814Z" style="fill:rgb(19,117,188);fill-rule:nonzero;"/>
        </g>
        <g transform="matrix(4.16667,0,0,4.16667,0,0)">
            <path d="M140.424,226.668C140.424,226.668 155.044,219.775 176.662,226.146L179.063,257.266C179.063,257.266 169.242,254.054 157.603,257.266C156.35,256.927 155.645,256.652 154.694,256.264C151.176,245.609 146.415,235.747 140.424,226.668Z" style="fill:rgb(190,30,45);fill-rule:nonzero;"/>
        </g>
        <g transform="matrix(4.16667,0,0,4.16667,0,0)">
            <path d="M156.819,248.494C156.819,248.494 161.362,249.956 162.093,250.426C162.824,250.896 165.287,253.545 166.375,254.185C168.15,255.23 169.874,254.76 171.283,256.274C172.693,257.788 178.593,263.898 181.935,264.054C185.277,264.211 187.783,261.287 188.306,258.99C188.828,256.692 188.462,246.405 184.65,236.902C180.839,227.399 176.949,229.005 176.949,229.005L178.241,246.98C178.241,246.98 174.26,244.839 173.633,243.951C173.006,243.064 172.275,239.878 172.275,238.364C172.275,236.85 172.524,234.139 171.597,233.978C170.396,233.769 170.022,235.064 169.926,235.805C169.769,237.006 169.821,239.043 168.986,239.67L161.049,233.612C161.049,233.612 160.057,233.194 159.43,233.978C158.679,234.917 159.587,235.962 159.587,235.962L164.6,240.401L157.759,235.649C157.759,235.649 156.528,234.474 155.619,235.545C154.731,236.589 156.454,237.842 156.454,237.842L162.824,243.011L155.984,240.766C155.984,240.766 154.992,240.453 154.626,241.34C154.261,242.228 154.626,242.75 155.514,243.22C156.464,243.723 161.519,245.987 161.519,245.987C161.519,245.987 161.937,246.666 161.519,247.032C161.101,247.398 157.342,246.405 157.342,246.405C157.342,246.405 156.245,246.144 156.088,247.084C155.932,248.024 156.819,248.494 156.819,248.494Z" style="fill:rgb(251,176,64);fill-rule:nonzero;"/>
        </g>
        <g transform="matrix(4.16667,0,0,4.16667,0,0)">
            <path d="M171.486,250.726C169.786,248.883 165.675,246.048 164.683,245.339C163.93,244.801 157.703,242.303 154.749,241.131C154.705,241.194 154.661,241.257 154.626,241.34C154.261,242.228 154.626,242.75 155.514,243.22C156.464,243.723 161.519,245.987 161.519,245.987C161.519,245.987 161.937,246.666 161.519,247.032C161.101,247.397 157.342,246.405 157.342,246.405C157.342,246.405 156.245,246.144 156.088,247.084C155.932,248.024 156.819,248.494 156.819,248.494C156.819,248.494 161.362,249.956 162.093,250.426C162.824,250.896 165.287,253.545 166.375,254.185C168.15,255.23 169.874,254.76 171.283,256.274C171.654,256.672 172.341,257.392 173.205,258.234L176.872,255.261C176.872,255.261 173.187,252.568 171.486,250.726Z" style="fill:rgb(247,147,29);fill-rule:nonzero;"/>
        </g>
        <g transform="matrix(4.16667,0,0,4.16667,0,0)">
            <path d="M138.214,285.804L141.718,279.128C145.691,272.623 146.395,267.181 146.399,267.131C147.364,266.792 149.553,271.454 138.214,285.804Z" style="fill:rgb(25,17,76);fill-rule:nonzero;"/>
        </g>
        <g transform="matrix(4.16667,0,0,4.16667,0,0)">
            <path d="M145.124,274.749L146.223,272.694C146.302,272.774 154.138,281.422 161.707,282.119C161.707,282.119 154.088,282.438 145.124,274.749Z" style="fill:rgb(25,17,76);fill-rule:nonzero;"/>
        </g>
        <g transform="matrix(4.16667,0,0,4.16667,0,0)">
            <path d="M128.86,278.186C128.86,278.186 131.771,264.532 134.76,259.176C137.311,254.606 141.191,254.198 141.191,254.198C141.172,254.206 138.568,254.273 135.817,259.419C133.002,264.682 128.884,278.103 128.86,278.186Z" style="fill:rgb(90,105,177);fill-rule:nonzero;"/>
        </g>
        <g transform="matrix(4.16667,0,0,4.16667,0,0)">
            <path d="M176.949,229.005L178.241,246.98C178.241,246.98 177.272,246.459 176.216,245.824C176.59,246.671 177.328,249.314 176.021,252.745C174.269,257.349 170.955,256.962 170.955,256.962C172.365,258.477 178.593,263.898 181.935,264.054C185.277,264.211 187.783,261.287 188.306,258.99C188.828,256.692 188.462,246.405 184.65,236.902C180.839,227.399 176.949,229.005 176.949,229.005Z" style="fill:rgb(12,147,68);fill-rule:nonzero;"/>
        </g>
        <g transform="matrix(4.16667,0,0,4.16667,0,0)">
            <path d="M123.297,279.78C125.423,276.734 127.363,271.813 127.62,269.399C127.919,265.714 126.635,263.789 126.632,263.772C126.632,263.772 127.23,270.356 123.297,279.78Z" style="fill:rgb(25,17,76);fill-rule:nonzero;"/>
        </g>
        <g transform="matrix(4.16667,0,0,4.16667,0,0)">
            <path d="M164.754,261.498C156.073,257.21 151.714,255.81 144.416,254.003C155.967,254.056 168.752,262.869 168.971,263.021L164.754,261.498Z" style="fill:rgb(90,105,177);fill-rule:nonzero;"/>
        </g>
        <g transform="matrix(4.16667,0,0,4.16667,0,0)">
            <path d="M187.975,255.261C187.644,257.908 186.651,258.852 185.943,259.324C185.234,259.797 183.817,259.986 182.399,259.419C180.982,258.852 175.833,254.836 175.833,254.836L174.793,256.253L171.864,257.293L171.223,257.237C173.019,259.037 178.769,263.906 181.936,264.054C185.277,264.211 187.783,261.287 188.306,258.99C188.567,257.836 188.605,254.665 188.096,250.592C188.14,252.073 188.144,253.912 187.975,255.261Z" style="fill:rgb(8,129,59);fill-rule:nonzero;"/>
        </g>
        <g transform="matrix(4.16667,0,0,4.16667,0,0)">
            <path d="M176.719,248.163C176.66,247.241 176.565,246.237 175.927,245.6C176.096,245.681 182.86,247.678 184.667,251.824C184.642,251.357 179.292,248.374 176.719,248.163Z" style="fill:rgb(86,177,98);fill-rule:nonzero;"/>
        </g>
        <g transform="matrix(4.16667,0,0,4.16667,0,0)">
            <path d="M170.778,255.852C170.778,255.852 170.718,256.983 171.534,257.482C172.691,258.19 173.695,257.434 174.51,256.727C175.325,256.017 176.314,254.737 176.73,252.875C177.179,250.867 177.392,249.875 177.049,247.962C176.734,246.202 175.927,245.6 175.927,245.6C175.927,245.6 176.778,247.867 176.27,250.938C175.825,253.627 174.687,255.438 173.542,256.076C172.714,256.537 171.817,257.009 170.778,255.852Z" style="fill:rgb(2,110,48);fill-rule:nonzero;"/>
        </g>
        <g transform="matrix(4.16667,0,0,4.16667,0,0)">
            <path d="M178.945,246.19C180.912,246.353 182.742,247.064 184.455,248.245C184.455,248.245 183.445,245.854 181.62,245.623C179.861,245.401 178.449,246.19 178.449,246.19L178.945,246.19Z" style="fill:rgb(86,177,98);fill-rule:nonzero;"/>
        </g>
        <g transform="matrix(4.16667,0,0,4.16667,0,0)">
            <path d="M184.65,236.902C180.839,227.399 176.949,229.005 176.949,229.005L177.053,230.459C177.716,230.697 179.005,231.309 180.345,232.797C182.02,234.658 185.325,239.834 187.501,246.849C186.902,243.69 185.994,240.251 184.65,236.902Z" style="fill:rgb(86,177,98);fill-rule:nonzero;"/>
        </g>
        <g transform="matrix(4.16667,0,0,4.16667,0,0)">
            <path d="M138.392,254.954C130.455,251.505 128.353,250.276 122.896,250.584C121.393,250.669 120.26,251.322 119.407,252.103C120.479,251.672 122.341,251.257 125.125,251.47C129.754,251.824 138.392,254.954 138.392,254.954Z" style="fill:rgb(90,105,177);fill-rule:nonzero;"/>
        </g>
        <g transform="matrix(4.16667,0,0,4.16667,0,0)">
            <path d="M125.388,259.902C125.388,259.902 128.789,262.49 129.214,265.359C129.214,265.359 129.64,262.596 128.683,261.426C127.727,260.257 125.388,259.902 125.388,259.902Z" style="fill:rgb(25,17,76);fill-rule:nonzero;"/>
        </g>
        <g transform="matrix(4.16667,0,0,4.16667,0,0)">
            <path d="M146.471,264.438C146.471,264.438 148.03,265.82 148.384,267.627C148.738,269.434 151.006,273.048 150.899,272.942C150.793,272.836 149.943,269.115 149.73,267.591C149.518,266.068 148.525,264.863 146.471,264.438Z" style="fill:rgb(25,17,76);fill-rule:nonzero;"/>
        </g>
        <g transform="matrix(4.16667,0,0,4.16667,0,0)">
            <path d="M116.99,293.21C117.139,293.061 117.875,292.619 118.44,292.289C118.435,292.213 118.337,290.647 118.514,288.904C118.054,289.01 117.483,289.095 116.818,289.123C116.95,289.806 116.973,290.889 116.654,291.421C116.278,292.047 115.341,292.617 114.74,292.873C113.536,293.387 111.356,293.387 110.258,293.387C109.16,293.387 107.347,293.507 106.36,293.776C105.191,294.095 102.64,293.847 100.903,293.493C99.167,293.139 97.572,291.686 97.183,291.261C96.934,290.989 96.945,290.474 96.986,290.135C96.415,290.858 96.51,291.833 96.51,291.833C96.51,291.833 97.293,293.974 100.375,294.809C102.504,295.387 104.834,295.224 106.536,294.914C110.4,294.209 113.219,294.914 113.219,294.914L113.001,295.028C113.863,294.781 116.75,293.45 116.99,293.21Z" style="fill:rgb(18,95,164);fill-rule:nonzero;"/>
        </g>
        <g transform="matrix(4.16667,0,0,4.16667,0,0)">
            <path d="M118.838,292.058C119.004,291.962 119.116,291.899 119.116,291.899L119.116,291.879C119.013,291.946 118.919,292.006 118.838,292.058Z" style="fill:rgb(18,95,164);fill-rule:nonzero;"/>
        </g>
        <g transform="matrix(4.16667,0,0,4.16667,0,0)">
            <path d="M132.132,296.221C131.329,297.261 128.919,297.497 128.021,297.545C127.124,297.591 124.809,297.828 123.723,298.253C122.636,298.678 118.667,299.434 117.25,299.434C115.833,299.434 114.273,299.056 113.471,298.82C112.667,298.584 111.675,297.686 111.345,296.978C111.175,296.614 111.155,296.252 111.175,295.984L111.026,296.062C109.617,297.394 110.557,298.882 112.332,299.874C114.001,300.807 116.173,301.384 120.164,300.814C122.723,300.448 124.343,298.917 128.205,299.039C131.922,299.156 132.878,296.569 132.957,294.919C132.754,295.305 132.481,295.77 132.132,296.221Z" style="fill:rgb(18,95,164);fill-rule:nonzero;"/>
        </g>
        <g transform="matrix(4.16667,0,0,4.16667,0,0)">
            <path d="M124.299,291.774C123.736,291.401 123.294,291.047 123.062,290.841C122.743,290.557 121.916,290.18 121.299,290.321C119.711,291.558 118.441,292.303 118.441,292.303C116.805,293.255 115.067,294.127 113.219,294.914L112.365,295.361C112.118,295.956 113.328,296.115 113.66,296.115C114.014,296.115 118.903,294.804 120.923,293.989C122.522,293.344 123.823,292.218 124.299,291.774Z" style="fill:rgb(6,160,220);fill-rule:nonzero;"/>
        </g>
        <g transform="matrix(4.16667,0,0,4.16667,0,0)">
            <path d="M110.045,287.611C110.097,287.586 110.879,287.204 111.302,286.998C110.449,286.147 109.321,286.103 108.339,286.132C108.277,286.177 108.218,286.23 108.155,286.272C106.901,287.095 101.805,289.094 98.961,289.352C98.807,289.427 98.606,289.552 98.618,289.719C98.635,289.985 98.813,290.428 99.149,290.464C99.486,290.499 102.144,290.393 103.349,289.967C104.553,289.543 109.975,287.647 110.045,287.611Z" style="fill:rgb(6,160,220);fill-rule:nonzero;"/>
        </g>
        <g transform="matrix(4.16667,0,0,4.16667,0,0)">
            <path d="M131.707,195.78C131.99,195.78 135.402,199.993 140.21,200.694C140.21,200.694 143.234,200.883 144.557,200.505L131.707,195.78Z" style="fill:rgb(243,116,65);fill-rule:nonzero;"/>
        </g>
        <g transform="matrix(4.16667,0,0,4.16667,0,0)">
            <path d="M140.399,197.765C140.399,197.765 135.108,196.726 132.368,192.001L131.045,189.734C131.045,189.734 134.73,192.379 138.321,193.324C141.912,194.269 145.786,193.985 145.786,193.985C145.786,193.985 142.573,191.717 140.967,189.545C140.967,189.545 143.329,191.434 145.975,191.434C148.62,191.434 152.872,191.151 152.872,191.151L149.282,193.608L149.093,195.97L143.612,197.859C143.612,197.859 142.29,198.332 140.399,197.765Z" style="fill:rgb(243,116,65);fill-rule:nonzero;"/>
        </g>
        <g transform="matrix(4.16667,0,0,4.16667,0,0)">
            <path d="M169.41,184.978C159.594,182.793 153.072,186.778 147.342,187.062C144.667,187.195 142.319,187.005 140.603,186.776C141.858,187.605 143.392,188.471 144.463,188.6C144.463,188.6 145.88,189.356 149.943,189.167C154.006,188.978 159.581,185.954 159.581,185.954C159.581,185.954 162.038,185.009 166.006,185.293C169.975,185.576 171.297,186.048 171.297,186.048C171.297,186.048 170.589,185.553 169.41,184.978Z" style="fill:rgb(243,116,65);fill-rule:nonzero;"/>
        </g>
        <g transform="matrix(4.16667,0,0,4.16667,0,0)">
            <path d="M150.416,199.749C147.374,201.61 143.83,202.355 143.83,202.355C153.318,201.796 157.415,196.435 166.106,198.625C171.137,195.392 179.14,194.93 179.14,194.93C168.982,191.198 155.896,196.395 150.416,199.749Z" style="fill:rgb(169,82,57);fill-rule:nonzero;"/>
        </g>
        <g transform="matrix(4.16667,0,0,4.16667,0,0)">
            <path d="M184.053,206.505C184.384,199.985 180.935,198.143 180.935,198.143L179.754,201.45L177.534,199.891L177.439,203.009L173.423,201.072C173.423,201.072 176.022,203.956 176.542,206.033C177.696,210.651 176.703,214.71 176.042,216.437C177.169,215.771 178.873,214.495 179.429,212.622C179.429,212.622 181.108,212.178 182.333,213.317C183.035,211.241 183.967,208.209 184.053,206.505Z" style="fill:rgb(169,82,57);fill-rule:nonzero;"/>
        </g>
        <g transform="matrix(4.16667,0,0,4.16667,0,0)">
            <path d="M122.893,142.617C123.813,144.358 126.042,147.865 127.43,149.378C128.642,150.699 131.402,151.9 133.63,152.433C136.24,153.058 141.925,152.074 143.065,151.497C144.536,150.753 146.371,149.386 146.623,145.524C146.875,141.661 146.637,137.379 146.676,134.796C146.694,133.628 148.083,127.307 148.41,126.052C148.841,124.4 149.362,122.365 147.705,121.998C146.57,121.747 146.132,123.318 145.206,126.619C144.695,128.438 144.436,129.541 144.078,130.386C143.767,131.118 142.902,131.483 142.189,131.132C141.991,131.034 141.802,130.901 141.641,130.717C140.919,129.895 140.686,122.574 140.641,121.278C140.596,119.983 140.468,117.001 140.468,117.001C140.468,117.001 140.691,114.559 138.671,114.815C136.97,115.03 137.238,117.954 137.238,117.954L137.288,129.076C137.288,129.076 136.568,130.193 135.674,129.035C135.005,128.169 132.814,115.402 132.814,115.402C132.814,115.402 132.343,112.721 130.644,112.998C128.945,113.275 129.248,115.557 129.485,116.866C129.718,118.142 131.098,127.832 131.098,127.832C131.098,127.832 131.205,130.166 129.752,128.649C128.298,127.132 125.341,119.957 125.341,119.957C125.341,119.957 124.317,117.821 122.971,118.639C121.625,119.456 122.779,122.569 122.779,122.569L126.651,132.584C126.651,132.584 127.297,134.566 127.445,136.256C127.592,137.927 128.229,140.064 127.09,139.724C124.871,139.062 123.743,136.531 121.814,135.371C120.624,134.655 118.742,134.009 118.184,135.522C117.556,137.227 120.591,138.265 122.893,142.617Z" style="fill:rgb(237,28,36);fill-rule:nonzero;"/>
        </g>
        <g transform="matrix(4.16667,0,0,4.16667,0,0)">
            <path d="M148.41,126.052C148.841,124.4 149.362,122.365 147.705,121.998C146.57,121.747 146.132,123.318 145.206,126.619C144.695,128.438 144.436,129.541 144.078,130.386C143.767,131.118 142.902,131.483 142.189,131.132C141.991,131.034 141.802,130.901 141.641,130.717C140.919,129.895 140.686,122.574 140.641,121.278C140.596,119.983 140.468,117.001 140.468,117.001C140.468,117.001 140.691,114.559 138.671,114.815C136.97,115.03 137.238,117.954 137.238,117.954L137.288,129.076C137.288,129.076 137.137,129.297 136.896,129.44C137.318,134.943 137.609,140.146 137.495,143.046C137.32,147.509 136.333,150.671 135.472,152.629C138.304,152.685 142.149,151.961 143.065,151.497C144.536,150.753 146.37,149.386 146.623,145.524C146.875,141.661 146.637,137.379 146.676,134.796C146.694,133.628 148.083,127.307 148.41,126.052Z" style="fill:rgb(190,30,45);fill-rule:nonzero;"/>
        </g>
        <g transform="matrix(4.16667,0,0,4.16667,0,0)">
            <path d="M150.042,150.056C149.659,151.131 149.035,153.457 148.933,154.642C148.843,155.677 149.412,157.326 150.058,158.486C150.813,159.845 153.46,161.887 154.153,162.148C155.047,162.484 156.35,162.732 158.098,161.326C159.845,159.921 161.581,158.141 162.699,157.146C163.204,156.696 166.447,154.813 167.111,154.461C167.985,153.998 169.058,153.422 168.565,152.571C168.228,151.988 167.386,152.417 165.613,153.315C164.637,153.81 164.064,154.131 163.563,154.309C163.129,154.464 162.634,154.237 162.505,153.795C162.469,153.672 162.452,153.539 162.467,153.399C162.536,152.768 165.569,149.8 166.105,149.274C166.641,148.747 167.864,147.524 167.864,147.524C167.864,147.524 168.994,146.663 168.093,145.9C167.335,145.258 166.191,146.518 166.191,146.518L161.462,150.897C161.462,150.897 160.704,151.027 160.848,150.192C160.955,149.567 165.548,143.63 165.548,143.63C165.548,143.63 166.508,142.378 165.724,141.761C164.94,141.145 164.084,142.169 163.619,142.783C163.165,143.381 159.569,147.767 159.569,147.767C159.569,147.767 158.614,148.727 158.692,147.512C158.771,146.298 160.675,142.224 160.675,142.224C160.675,142.224 161.186,140.95 160.31,140.695C159.433,140.441 158.556,142.153 158.556,142.153L155.797,147.73C155.797,147.73 155.205,148.782 154.541,149.508C153.885,150.225 153.223,151.335 152.921,150.714C152.334,149.507 152.973,148.035 152.712,146.757C152.552,145.968 152.09,144.912 151.226,145.267C150.252,145.666 150.998,147.369 150.042,150.056Z" style="fill:rgb(251,176,64);fill-rule:nonzero;"/>
        </g>
        <g transform="matrix(4.16667,0,0,4.16667,0,0)">
            <path d="M165.613,153.315C164.637,153.81 164.064,154.131 163.563,154.309C163.129,154.464 162.634,154.237 162.505,153.795C162.469,153.672 162.452,153.539 162.467,153.399C162.536,152.768 165.569,149.8 166.105,149.274C166.641,148.747 167.864,147.524 167.864,147.524C167.864,147.524 168.994,146.663 168.093,145.9C167.335,145.258 166.191,146.518 166.191,146.518L161.462,150.897C161.462,150.897 161.031,150.97 160.881,150.646C157.438,154.098 153.48,157.554 150.99,159.665C152.083,160.802 153.645,161.956 154.153,162.148C155.047,162.484 156.35,162.732 158.098,161.326C159.845,159.921 161.58,158.141 162.699,157.146C163.204,156.696 166.447,154.813 167.111,154.461C167.985,153.998 169.058,153.422 168.565,152.571C168.228,151.988 167.386,152.417 165.613,153.315Z" style="fill:rgb(247,147,29);fill-rule:nonzero;"/>
        </g>
        <g transform="matrix(4.16667,0,0,4.16667,0,0)">
            <path d="M110.675,136.128C111.192,137.285 112.086,139.804 112.303,141.108C112.492,142.245 112.006,144.121 111.393,145.461C110.675,147.031 107.923,149.523 107.179,149.872C106.218,150.322 104.798,150.711 102.741,149.307C100.683,147.904 98.607,146.086 97.282,145.082C96.683,144.628 92.929,142.826 92.163,142.494C91.154,142.058 89.917,141.515 90.388,140.53C90.71,139.855 91.68,140.256 93.721,141.095C94.845,141.557 95.507,141.863 96.077,142.017C96.571,142.15 97.099,141.856 97.204,141.355C97.232,141.216 97.24,141.067 97.211,140.913C97.08,140.221 93.462,137.201 92.823,136.664C92.184,136.128 90.724,134.88 90.724,134.88C90.724,134.88 89.397,134.026 90.328,133.104C91.111,132.327 92.487,133.621 92.487,133.621L98.105,138.056C98.105,138.056 98.956,138.134 98.724,137.222C98.55,136.539 92.948,130.368 92.948,130.368C92.948,130.368 91.775,129.066 92.589,128.315C93.403,127.564 94.44,128.622 95.009,129.262C95.564,129.885 99.928,134.425 99.928,134.425C99.928,134.425 101.069,135.404 100.876,134.067C100.683,132.73 98.219,128.386 98.219,128.386C98.219,128.386 97.542,127.02 98.49,126.662C99.438,126.304 100.559,128.123 100.559,128.123L104.1,134.055C104.1,134.055 104.848,135.169 105.646,135.914C106.435,136.65 107.265,137.82 107.544,137.108C108.088,135.721 107.253,134.146 107.43,132.709C107.539,131.821 107.957,130.612 108.945,130.929C110.058,131.286 109.381,133.236 110.675,136.128Z" style="fill:rgb(8,129,59);fill-rule:nonzero;"/>
        </g>
        <g transform="matrix(4.16667,0,0,4.16667,0,0)">
            <path d="M92.163,142.494C91.154,142.058 89.917,141.515 90.388,140.53C90.71,139.855 91.68,140.256 93.721,141.095C94.845,141.557 95.507,141.863 96.077,142.017C96.571,142.15 97.099,141.856 97.204,141.355C97.232,141.216 97.24,141.067 97.211,140.913C97.08,140.221 93.462,137.201 92.823,136.664C92.184,136.128 90.724,134.88 90.724,134.88C90.724,134.88 89.397,134.026 90.328,133.104C91.111,132.327 92.487,133.621 92.487,133.621L98.105,138.056C98.105,138.056 98.276,138.067 98.444,138.002C101.067,140.397 103.589,142.607 105.104,143.699C107.435,145.38 109.429,146.132 110.762,146.472C109.668,147.929 107.776,149.592 107.179,149.872C106.218,150.322 104.798,150.711 102.741,149.307C100.683,147.903 98.607,146.086 97.282,145.082C96.683,144.628 92.929,142.826 92.163,142.494Z" style="fill:rgb(2,110,48);fill-rule:nonzero;"/>
        </g>
        <g transform="matrix(4.16667,0,0,4.16667,0,0)">
            <path d="M87.493,151.844C89.447,152.435 93.459,154.004 95.274,155.115C96.859,156.086 98.631,158.656 99.617,160.817C100.772,163.348 100.902,169.33 100.542,170.604C100.077,172.249 99.05,174.387 95.17,175.412C91.29,176.437 86.885,177.047 84.264,177.601C83.079,177.851 76.924,180.522 75.712,181.105C74.116,181.872 72.149,182.806 71.447,181.193C70.965,180.088 72.477,179.33 75.651,177.731C77.401,176.849 78.472,176.366 79.26,175.834C79.944,175.372 80.143,174.419 79.644,173.763C79.505,173.582 79.332,173.416 79.113,173.288C78.132,172.717 70.637,173.936 69.309,174.148C67.982,174.36 64.922,174.823 64.922,174.823C64.922,174.823 62.481,175.536 62.34,173.429C62.221,171.656 65.249,171.346 65.249,171.346L76.577,169.185C76.577,169.185 77.57,168.231 76.214,167.551C75.2,167.043 61.773,167.353 61.773,167.353C61.773,167.353 58.951,167.406 58.895,165.623C58.839,163.839 61.222,163.693 62.601,163.675C63.945,163.658 74.079,163.134 74.079,163.134C74.079,163.134 76.476,162.778 74.643,161.602C72.811,160.425 64.921,158.842 64.921,158.842C64.921,158.842 62.544,158.225 63.108,156.693C63.672,155.16 67.07,155.715 67.07,155.715L78.03,157.663C78.03,157.663 80.175,157.927 81.925,157.742C83.654,157.558 85.956,157.782 85.383,156.69C84.268,154.564 81.469,153.919 79.905,152.188C78.939,151.118 77.908,149.332 79.336,148.464C80.946,147.485 82.606,150.367 87.493,151.844Z" style="fill:rgb(138,93,59);fill-rule:nonzero;"/>
        </g>
        <g transform="matrix(4.16667,0,0,4.16667,0,0)">
            <path d="M75.712,181.104C74.116,181.872 72.149,182.806 71.447,181.193C70.965,180.088 72.477,179.33 75.651,177.731C77.401,176.849 78.472,176.366 79.26,175.834C79.944,175.372 80.143,174.419 79.644,173.763C79.505,173.582 79.332,173.416 79.113,173.288C78.132,172.717 70.637,173.936 69.309,174.148C67.982,174.36 64.922,174.822 64.922,174.822C64.922,174.822 62.481,175.536 62.34,173.429C62.221,171.656 65.249,171.346 65.249,171.346L76.577,169.185C76.577,169.185 76.772,168.988 76.87,168.714C82.553,168.048 87.905,167.31 90.833,166.617C95.34,165.551 98.361,163.918 100.183,162.653C100.803,165.523 100.831,169.58 100.542,170.604C100.077,172.249 99.05,174.387 95.17,175.412C91.29,176.437 86.885,177.047 84.264,177.601C83.079,177.851 76.924,180.522 75.712,181.104Z" style="fill:rgb(117,76,40);fill-rule:nonzero;"/>
        </g>
        <g transform="matrix(4.16667,0,0,4.16667,0,0)">
            <path d="M118.696,198.07C119.452,196.666 120.806,193.587 121.197,191.971C121.539,190.561 121.102,188.163 120.456,186.424C119.7,184.387 116.475,181.007 115.573,180.501C114.409,179.848 112.663,179.231 109.952,180.802C107.241,182.374 104.468,184.465 102.713,185.603C101.919,186.118 97.043,188.034 96.051,188.38C94.745,188.835 93.142,189.402 93.643,190.681C93.986,191.558 95.239,191.144 97.877,190.279C99.331,189.802 100.19,189.479 100.919,189.339C101.552,189.217 102.187,189.635 102.272,190.273C102.296,190.449 102.292,190.637 102.241,190.828C102.013,191.684 97.195,195.142 96.344,195.756C95.493,196.371 93.545,197.802 93.545,197.802C93.545,197.802 91.802,198.752 92.885,199.996C93.797,201.042 95.642,199.544 95.642,199.544L103.1,194.496C103.1,194.496 104.175,194.476 103.8,195.599C103.519,196.44 95.921,203.669 95.921,203.669C95.921,203.669 94.331,205.195 95.283,206.213C96.235,207.23 97.633,205.997 98.406,205.247C99.159,204.516 105.054,199.219 105.054,199.219C105.054,199.219 106.576,198.095 106.21,199.756C105.845,201.417 102.354,206.641 102.354,206.641C102.354,206.641 101.379,208.293 102.536,208.829C103.693,209.366 105.266,207.186 105.266,207.186L110.255,200.067C110.255,200.067 111.296,198.739 112.366,197.877C113.423,197.025 114.573,195.633 114.858,196.553C115.414,198.344 114.221,200.243 114.31,202.063C114.365,203.187 114.779,204.743 116.048,204.436C117.478,204.09 116.808,201.581 118.696,198.07Z" style="fill:rgb(247,147,29);fill-rule:nonzero;"/>
        </g>
        <g transform="matrix(4.16667,0,0,4.16667,0,0)">
            <path d="M96.051,188.38C94.745,188.835 93.142,189.402 93.643,190.681C93.986,191.558 95.239,191.144 97.877,190.279C99.331,189.802 100.19,189.479 100.919,189.339C101.552,189.217 102.187,189.635 102.272,190.273C102.296,190.449 102.292,190.637 102.241,190.828C102.013,191.684 97.195,195.142 96.344,195.756C95.493,196.371 93.545,197.802 93.545,197.802C93.545,197.802 91.802,198.752 92.885,199.996C93.797,201.042 95.642,199.544 95.642,199.544L103.1,194.496C103.1,194.496 103.316,194.497 103.521,194.595C107.032,191.83 110.4,189.288 112.401,188.058C115.481,186.163 118.053,185.401 119.757,185.097C118.518,183.168 116.297,180.908 115.573,180.501C114.409,179.848 112.663,179.231 109.952,180.802C107.241,182.374 104.468,184.465 102.713,185.603C101.919,186.118 97.043,188.034 96.051,188.38Z" style="fill:rgb(253,185,74);fill-rule:nonzero;"/>
        </g>
        <g transform="matrix(4.16667,0,0,4.16667,0,0)">
            <path d="M93.555,119.69C95.306,120.839 99.18,122.963 101.25,123.659C103.056,124.267 106.244,123.969 108.593,123.323C111.344,122.566 116.135,118.732 116.9,117.61C117.888,116.162 118.896,113.947 117.148,110.221C115.401,106.494 112.982,102.628 111.694,100.202C111.111,99.105 109.162,92.505 108.822,91.168C108.376,89.408 107.817,87.246 106.085,87.754C104.899,88.103 105.297,89.79 106.128,93.34C106.586,95.297 106.911,96.457 107.011,97.428C107.097,98.269 106.479,99.053 105.634,99.092C105.4,99.103 105.155,99.075 104.912,98.987C103.817,98.591 99.843,91.893 99.136,90.709C98.43,89.524 96.779,86.813 96.779,86.813C96.779,86.813 95.735,84.424 93.984,85.699C92.511,86.773 94.26,89.358 94.26,89.358L100.014,99.692C100.014,99.692 99.917,101.101 98.49,100.482C97.422,100.018 88.831,89.252 88.831,89.252C88.831,89.252 87.016,86.996 85.576,88.126C84.136,89.255 85.59,91.226 86.482,92.322C87.353,93.392 93.61,101.708 93.61,101.708C93.61,101.708 94.907,103.828 92.776,103.16C90.645,102.493 84.208,97.328 84.208,97.328C84.208,97.328 82.158,95.865 81.324,97.317C80.489,98.769 83.162,101.076 83.162,101.076L91.907,108.417C91.907,108.417 93.525,109.931 94.531,111.429C95.525,112.91 97.215,114.573 95.979,114.841C93.572,115.363 91.224,113.586 88.832,113.495C87.356,113.438 85.272,113.802 85.529,115.498C85.818,117.408 89.178,116.818 93.555,119.69Z" style="fill:rgb(19,117,188);fill-rule:nonzero;"/>
        </g>
        <g transform="matrix(4.16667,0,0,4.16667,0,0)">
            <path d="M108.822,91.168C108.376,89.408 107.817,87.246 106.085,87.754C104.899,88.103 105.297,89.79 106.128,93.34C106.586,95.297 106.911,96.457 107.011,97.428C107.097,98.269 106.479,99.053 105.634,99.091C105.4,99.102 105.155,99.075 104.912,98.987C103.817,98.591 99.843,91.893 99.136,90.709C98.43,89.524 96.779,86.813 96.779,86.813C96.779,86.813 95.735,84.424 93.984,85.699C92.511,86.773 94.26,89.358 94.26,89.358L100.014,99.692C100.014,99.692 99.987,99.975 99.836,100.232C103.053,105.14 105.994,109.838 107.375,112.596C109.503,116.843 110.206,120.295 110.409,122.56C113.075,121.159 116.286,118.511 116.9,117.61C117.888,116.162 118.896,113.947 117.148,110.22C115.401,106.494 112.982,102.628 111.694,100.202C111.111,99.105 109.162,92.505 108.822,91.168Z" style="fill:rgb(18,95,164);fill-rule:nonzero;"/>
        </g>
        <g transform="matrix(4.16667,0,0,4.16667,0,0)">
            <path d="M152.822,80.166C152.77,82.087 152.338,86.116 151.779,88.039C151.29,89.718 149.395,91.962 147.678,93.392C145.666,95.066 140.269,96.665 139.023,96.653C137.415,96.638 135.22,96.236 133.329,92.967C131.439,89.699 129.795,85.852 128.644,83.61C128.123,82.596 124.175,77.67 123.347,76.714C122.255,75.456 120.92,73.901 122.21,72.864C123.095,72.154 124.156,73.338 126.394,75.824C127.627,77.194 128.33,78.046 129.009,78.63C129.597,79.137 130.511,79.082 130.983,78.466C131.114,78.295 131.222,78.097 131.283,77.867C131.559,76.835 128.598,70.333 128.076,69.181C127.555,68.028 126.378,65.365 126.378,65.365C126.378,65.365 125.126,63.327 127.004,62.677C128.584,62.13 129.615,64.802 129.615,64.802L134.38,74.549C134.38,74.549 135.492,75.214 135.773,73.816C135.984,72.769 132.379,60.658 132.379,60.658C132.379,60.658 131.632,58.11 133.238,57.617C134.843,57.125 135.564,59.252 135.922,60.499C136.271,61.715 139.254,70.785 139.254,70.785C139.254,70.785 140.17,72.872 140.785,70.917C141.399,68.962 140.883,61.41 140.883,61.41C140.883,61.41 140.855,59.1 142.386,59.232C143.917,59.364 144.253,62.587 144.253,62.587L145.198,73.017C145.198,73.017 145.49,75.029 146.091,76.572C146.685,78.096 147.051,80.24 147.901,79.45C149.556,77.912 149.448,75.212 150.632,73.363C151.364,72.222 152.73,70.844 153.872,71.926C155.158,73.145 152.953,75.365 152.822,80.166Z" style="fill:rgb(2,110,48);fill-rule:nonzero;"/>
        </g>
        <g transform="matrix(4.16667,0,0,4.16667,0,0)">
            <path d="M123.347,76.714C122.255,75.456 120.92,73.901 122.21,72.864C123.095,72.154 124.157,73.338 126.394,75.824C127.627,77.194 128.33,78.046 129.009,78.63C129.597,79.137 130.511,79.082 130.983,78.466C131.114,78.295 131.222,78.097 131.283,77.867C131.559,76.835 128.598,70.333 128.076,69.181C127.555,68.028 126.378,65.365 126.378,65.365C126.378,65.365 125.126,63.327 127.004,62.677C128.584,62.13 129.614,64.802 129.614,64.802L134.38,74.549C134.38,74.549 134.607,74.677 134.88,74.698C136.891,79.692 138.886,84.368 140.239,86.854C142.322,90.681 144.553,93.019 146.151,94.359C143.7,95.632 140.023,96.662 139.023,96.653C137.415,96.638 135.22,96.236 133.329,92.967C131.439,89.699 129.795,85.852 128.644,83.61C128.123,82.596 124.175,77.67 123.347,76.714Z" style="fill:rgb(8,129,59);fill-rule:nonzero;"/>
        </g>
        <g transform="matrix(4.16667,0,0,4.16667,0,0)">
            <path d="M212.669,66.195C212.007,67.638 210.855,70.783 210.568,72.412C210.318,73.835 210.903,76.19 211.654,77.877C212.534,79.852 215.951,83.007 216.879,83.453C218.076,84.029 219.851,84.532 222.444,82.799C225.039,81.067 227.661,78.816 229.333,77.574C230.089,77.012 234.813,74.802 235.776,74.396C237.045,73.862 238.602,73.197 238.024,71.958C237.628,71.108 236.408,71.598 233.843,72.624C232.429,73.19 231.596,73.565 230.88,73.75C230.26,73.91 229.602,73.536 229.477,72.907C229.442,72.733 229.435,72.546 229.474,72.354C229.645,71.488 234.214,67.75 235.02,67.086C235.828,66.422 237.672,64.878 237.672,64.878C237.672,64.878 239.344,63.823 238.189,62.656C237.218,61.674 235.479,63.279 235.479,63.279L228.389,68.764C228.389,68.764 227.322,68.851 227.624,67.712C227.85,66.859 234.942,59.198 234.942,59.198C234.942,59.198 236.426,57.582 235.416,56.631C234.406,55.68 233.095,56.994 232.374,57.787C231.672,58.561 226.15,64.195 226.15,64.195C226.15,64.195 224.709,65.407 224.967,63.734C225.226,62.061 228.364,56.651 228.364,56.651C228.364,56.651 229.229,54.949 228.046,54.488C226.863,54.028 225.437,56.293 225.437,56.293L220.93,63.68C220.93,63.68 219.979,65.065 218.971,65.988C217.974,66.901 216.919,68.357 216.578,67.462C215.913,65.717 216.979,63.755 216.775,61.953C216.649,60.84 216.141,59.32 214.898,59.705C213.5,60.139 214.324,62.589 212.669,66.195Z" style="fill:rgb(138,93,59);fill-rule:nonzero;"/>
        </g>
        <g transform="matrix(4.16667,0,0,4.16667,0,0)">
            <path d="M235.776,74.396C237.045,73.862 238.602,73.197 238.024,71.958C237.628,71.108 236.408,71.598 233.843,72.624C232.429,73.19 231.596,73.565 230.88,73.75C230.26,73.91 229.602,73.536 229.477,72.907C229.442,72.733 229.435,72.546 229.474,72.354C229.645,71.488 234.214,67.75 235.02,67.086C235.828,66.422 237.672,64.878 237.672,64.878C237.672,64.878 239.344,63.823 238.189,62.656C237.218,61.674 235.479,63.279 235.479,63.279L228.389,68.764C228.389,68.764 228.174,68.776 227.964,68.692C224.65,71.66 221.465,74.397 219.555,75.746C216.613,77.822 214.106,78.741 212.433,79.151C213.785,80.989 216.134,83.094 216.879,83.453C218.076,84.029 219.851,84.532 222.444,82.799C225.039,81.067 227.661,78.816 229.333,77.574C230.089,77.012 234.813,74.802 235.776,74.396Z" style="fill:rgb(117,76,40);fill-rule:nonzero;"/>
        </g>
        <g transform="matrix(4.16667,0,0,4.16667,0,0)">
            <path d="M188.684,87.597C188.937,88.553 189.628,90.522 190.135,91.42C190.578,92.203 191.792,93.105 192.821,93.619C194.026,94.221 196.92,94.386 197.543,94.233C198.347,94.036 199.4,93.576 199.962,91.715C200.524,89.854 200.895,87.732 201.207,86.473C201.349,85.903 202.746,82.969 203.049,82.393C203.448,81.633 203.934,80.697 203.165,80.329C202.638,80.077 202.245,80.796 201.417,82.306C200.961,83.138 200.708,83.648 200.437,84.021C200.202,84.343 199.737,84.423 199.429,84.17C199.343,84.101 199.266,84.014 199.208,83.906C198.948,83.421 199.665,79.814 199.791,79.175C199.916,78.536 200.192,77.062 200.192,77.062C200.192,77.062 200.579,75.893 199.562,75.789C198.705,75.701 198.504,77.161 198.504,77.161L197.265,82.608C197.265,82.608 196.786,83.073 196.479,82.405C196.251,81.905 196.63,75.411 196.63,75.411C196.63,75.411 196.704,74.045 195.841,73.988C194.979,73.93 194.868,75.082 194.836,75.749C194.804,76.399 194.378,81.296 194.378,81.296C194.378,81.296 194.165,82.45 193.627,81.543C193.088,80.636 192.456,76.79 192.456,76.79C192.456,76.79 192.198,75.629 191.446,75.876C190.695,76.122 190.906,77.776 190.906,77.776L191.662,83.115C191.662,83.115 191.754,84.158 191.634,85.002C191.516,85.836 191.585,86.954 191.065,86.658C190.056,86.082 189.791,84.716 188.979,83.93C188.479,83.444 187.631,82.914 187.187,83.591C186.686,84.353 188.053,85.206 188.684,87.597Z" style="fill:rgb(238,40,124);fill-rule:nonzero;"/>
        </g>
        <g transform="matrix(4.16667,0,0,4.16667,0,0)">
            <path d="M201.417,82.306C200.961,83.138 200.708,83.648 200.437,84.021C200.202,84.343 199.737,84.423 199.429,84.17C199.343,84.101 199.266,84.014 199.208,83.906C198.948,83.421 199.665,79.814 199.791,79.175C199.916,78.536 200.192,77.062 200.192,77.062C200.192,77.062 200.579,75.893 199.562,75.789C198.705,75.701 198.504,77.161 198.504,77.161L197.265,82.608C197.265,82.608 196.991,82.872 196.726,82.713C195.953,86.867 194.813,91.277 194.065,94.006C195.404,94.284 197.085,94.345 197.543,94.233C198.348,94.036 199.4,93.576 199.962,91.715C200.524,89.854 200.895,87.732 201.207,86.473C201.349,85.903 202.746,82.969 203.049,82.393C203.448,81.633 203.934,80.697 203.165,80.329C202.638,80.077 202.245,80.796 201.417,82.306Z" style="fill:rgb(158,30,99);fill-rule:nonzero;"/>
        </g>
        <g transform="matrix(4.16667,0,0,4.16667,0,0)">
            <path d="M151.525,63.419C151.703,64.576 152.27,66.979 152.754,68.099C153.177,69.077 154.493,70.29 155.64,71.023C156.983,71.882 160.367,72.439 161.119,72.337C162.09,72.206 163.387,71.796 164.281,69.676C165.176,67.557 165.877,65.107 166.402,63.664C166.64,63.011 168.652,59.734 169.081,59.093C169.645,58.249 170.334,57.209 169.475,56.68C168.887,56.317 168.334,57.114 167.171,58.787C166.53,59.709 166.169,60.277 165.803,60.682C165.486,61.032 164.93,61.068 164.598,60.732C164.506,60.639 164.425,60.527 164.371,60.393C164.126,59.79 165.422,55.635 165.649,54.899C165.877,54.162 166.386,52.463 166.386,52.463C166.386,52.463 166.988,51.136 165.803,50.885C164.807,50.675 164.387,52.368 164.387,52.368L162.247,58.623C162.247,58.623 161.625,59.109 161.349,58.285C161.142,57.669 162.401,50.074 162.401,50.074C162.401,50.074 162.659,48.476 161.651,48.301C160.643,48.125 160.369,49.466 160.247,50.247C160.128,51.008 159.014,56.717 159.014,56.717C159.014,56.717 158.619,58.048 158.099,56.914C157.579,55.779 157.317,51.174 157.317,51.174C157.317,51.174 157.158,49.775 156.243,49.972C155.328,50.168 155.369,52.141 155.369,52.141L155.591,58.519C155.591,58.519 155.567,59.757 155.321,60.735C155.078,61.702 155.019,63.025 154.446,62.612C153.329,61.808 153.188,60.168 152.332,59.141C151.803,58.506 150.873,57.777 150.265,58.518C149.58,59.352 151.081,60.527 151.525,63.419Z" style="fill:rgb(251,176,64);fill-rule:nonzero;"/>
        </g>
        <g transform="matrix(4.16667,0,0,4.16667,0,0)">
            <path d="M167.171,58.787C166.53,59.709 166.169,60.277 165.803,60.682C165.486,61.032 164.93,61.068 164.598,60.732C164.506,60.639 164.425,60.527 164.371,60.393C164.126,59.79 165.422,55.635 165.649,54.899C165.877,54.162 166.386,52.463 166.386,52.463C166.386,52.463 166.988,51.136 165.803,50.885C164.807,50.675 164.387,52.368 164.387,52.368L162.247,58.623C162.247,58.623 161.892,58.899 161.6,58.679C160.17,63.47 158.277,68.517 157.055,71.634C158.596,72.129 160.566,72.412 161.119,72.337C162.09,72.206 163.387,71.796 164.281,69.676C165.176,67.557 165.877,65.107 166.402,63.664C166.64,63.011 168.652,59.734 169.081,59.093C169.645,58.249 170.334,57.209 169.475,56.68C168.887,56.317 168.334,57.114 167.171,58.787Z" style="fill:rgb(247,147,29);fill-rule:nonzero;"/>
        </g>
        <g transform="matrix(4.16667,0,0,4.16667,0,0)">
            <path d="M206.775,64.207C206.33,65.478 205.183,68.077 204.398,69.242C203.714,70.259 201.97,71.353 200.518,71.941C198.816,72.63 194.871,72.546 194.042,72.273C192.972,71.92 191.591,71.182 191.025,68.596C190.461,66.01 190.184,63.09 189.894,61.347C189.762,60.559 188.177,56.427 187.827,55.612C187.367,54.539 186.807,53.216 187.89,52.799C188.632,52.513 189.089,53.53 190.053,55.668C190.584,56.846 190.871,57.566 191.2,58.1C191.484,58.564 192.107,58.722 192.554,58.411C192.677,58.325 192.792,58.215 192.882,58.075C193.286,57.445 192.695,52.471 192.594,51.59C192.491,50.71 192.273,48.68 192.273,48.68C192.273,48.68 191.873,47.051 193.266,47.018C194.437,46.99 194.555,48.994 194.555,48.994L195.657,56.521C195.657,56.521 196.258,57.202 196.744,56.328C197.108,55.674 197.285,46.817 197.285,46.817C197.285,46.817 197.33,44.956 198.508,44.969C199.685,44.983 199.713,46.558 199.686,47.467C199.659,48.353 199.716,55.046 199.716,55.046C199.716,55.046 199.883,56.636 200.71,55.462C201.537,54.287 202.805,49.133 202.805,49.133C202.805,49.133 203.278,47.585 204.272,48C205.267,48.415 204.804,50.638 204.804,50.638L203.209,57.806C203.209,57.806 202.975,59.212 203.047,60.37C203.118,61.515 202.905,63.025 203.642,62.679C205.075,62.004 205.579,60.178 206.765,59.196C207.496,58.59 208.702,57.962 209.234,58.928C209.834,60.016 207.887,61.028 206.775,64.207Z" style="fill:rgb(140,198,63);fill-rule:nonzero;"/>
        </g>
        <g transform="matrix(4.16667,0,0,4.16667,0,0)">
            <path d="M187.827,55.612C187.367,54.539 186.807,53.216 187.89,52.799C188.632,52.513 189.089,53.53 190.053,55.668C190.584,56.846 190.871,57.566 191.2,58.1C191.484,58.564 192.107,58.722 192.554,58.411C192.677,58.325 192.792,58.215 192.882,58.075C193.286,57.445 192.695,52.471 192.594,51.59C192.491,50.71 192.273,48.68 192.273,48.68C192.273,48.68 191.873,47.051 193.266,47.018C194.437,46.99 194.555,48.994 194.555,48.994L195.657,56.521C195.657,56.521 195.782,56.654 195.96,56.727C196.236,60.491 196.571,64.039 196.945,65.988C197.52,68.988 198.51,71.026 199.292,72.262C197.383,72.589 194.708,72.492 194.042,72.273C192.972,71.92 191.591,71.182 191.025,68.596C190.461,66.01 190.184,63.09 189.894,61.347C189.762,60.559 188.177,56.427 187.827,55.612Z" style="fill:rgb(215,223,34);fill-rule:nonzero;"/>
        </g>
        <g transform="matrix(4.16667,0,0,4.16667,0,0)">
            <path d="M238.428,88.169C237.523,90.098 235.945,94.305 235.542,96.489C235.19,98.396 235.95,101.562 236.94,103.833C238.1,106.494 242.651,110.764 243.892,111.373C245.492,112.158 247.867,112.853 251.367,110.556C254.867,108.259 258.411,105.266 260.668,103.618C261.687,102.873 268.052,99.958 269.349,99.423C271.057,98.72 273.153,97.845 272.392,96.175C271.869,95.031 270.228,95.675 266.772,97.024C264.869,97.768 263.748,98.262 262.784,98.503C261.95,98.712 261.071,98.202 260.911,97.358C260.866,97.123 260.858,96.873 260.911,96.614C261.152,95.455 267.323,90.487 268.413,89.605C269.504,88.723 271.995,86.67 271.995,86.67C271.995,86.67 274.251,85.274 272.714,83.695C271.421,82.367 269.069,84.501 269.069,84.501L259.496,91.786C259.496,91.786 258.062,91.891 258.48,90.365C258.793,89.223 268.394,79.019 268.394,79.019C268.394,79.019 270.402,76.866 269.057,75.579C267.712,74.293 265.937,76.041 264.963,77.098C264.012,78.129 256.54,85.629 256.54,85.629C256.54,85.629 254.594,87.241 254.958,84.999C255.323,82.756 259.594,75.53 259.594,75.53C259.594,75.53 260.771,73.255 259.189,72.625C257.605,71.994 255.669,75.018 255.669,75.018L249.54,84.882C249.54,84.882 248.25,86.731 246.886,87.959C245.538,89.173 244.108,91.116 243.659,89.91C242.786,87.562 244.237,84.941 243.984,82.52C243.827,81.025 243.16,78.979 241.49,79.483C239.609,80.049 240.688,83.347 238.428,88.169Z" style="fill:rgb(19,117,188);fill-rule:nonzero;"/>
        </g>
        <g transform="matrix(4.16667,0,0,4.16667,0,0)">
            <path d="M269.349,99.423C271.057,98.72 273.153,97.845 272.392,96.175C271.869,95.031 270.228,95.675 266.772,97.024C264.869,97.768 263.748,98.262 262.784,98.503C261.95,98.712 261.071,98.202 260.911,97.358C260.866,97.123 260.858,96.873 260.911,96.614C261.152,95.455 267.323,90.487 268.413,89.605C269.504,88.723 271.995,86.67 271.995,86.67C271.995,86.67 274.251,85.274 272.714,83.695C271.421,82.367 269.069,84.501 269.069,84.501L259.496,91.786C259.496,91.786 259.207,91.799 258.926,91.685C254.448,95.631 250.143,99.27 247.564,101.059C243.596,103.814 240.222,105.02 237.971,105.551C239.766,108.033 242.895,110.884 243.892,111.373C245.492,112.158 247.867,112.853 251.367,110.556C254.867,108.259 258.411,105.266 260.668,103.618C261.687,102.873 268.052,99.958 269.349,99.423Z" style="fill:rgb(18,95,164);fill-rule:nonzero;"/>
        </g>
        <g transform="matrix(4.16667,0,0,4.16667,0,0)">
            <path d="M249.576,142.802C247.783,142.972 243.983,143.031 242.13,142.73C240.513,142.467 238.207,140.961 236.681,139.526C234.893,137.845 232.789,133.005 232.657,131.845C232.487,130.347 232.61,128.258 235.437,126.125C238.262,123.993 241.653,122.024 243.608,120.696C244.492,120.096 248.625,115.859 249.42,114.979C250.466,113.819 251.76,112.4 252.872,113.482C253.635,114.223 252.653,115.346 250.596,117.713C249.462,119.017 248.749,119.769 248.283,120.467C247.88,121.072 248.035,121.917 248.662,122.285C248.836,122.387 249.033,122.465 249.254,122.496C250.245,122.634 255.957,119.136 256.971,118.519C257.983,117.902 260.327,116.503 260.327,116.503C260.327,116.503 262.081,115.105 262.9,116.778C263.59,118.186 261.221,119.45 261.221,119.45L252.695,124.999C252.695,124.999 252.203,126.109 253.537,126.211C254.535,126.288 265.393,121.549 265.393,121.549C265.393,121.549 267.679,120.563 268.32,122.001C268.962,123.438 267.065,124.353 265.945,124.828C264.854,125.291 256.755,129.104 256.755,129.104C256.755,129.104 254.918,130.195 256.807,130.544C258.695,130.892 265.665,129.548 265.665,129.548C265.665,129.548 267.811,129.259 267.863,130.698C267.915,132.137 264.955,132.819 264.955,132.819L255.357,134.89C255.357,134.89 253.518,135.391 252.151,136.127C250.801,136.854 248.848,137.44 249.68,138.141C251.301,139.505 253.801,139.095 255.656,139.986C256.802,140.537 258.239,141.651 257.364,142.837C256.377,144.173 254.059,142.375 249.576,142.802Z" style="fill:rgb(190,30,45);fill-rule:nonzero;"/>
        </g>
        <g transform="matrix(4.16667,0,0,4.16667,0,0)">
            <path d="M249.42,114.979C250.466,113.819 251.76,112.4 252.872,113.482C253.635,114.223 252.653,115.346 250.596,117.713C249.462,119.017 248.749,119.769 248.283,120.467C247.88,121.072 248.035,121.917 248.662,122.285C248.836,122.387 249.033,122.465 249.254,122.496C250.245,122.634 255.957,119.136 256.971,118.519C257.983,117.902 260.327,116.503 260.327,116.503C260.327,116.503 262.081,115.105 262.9,116.778C263.59,118.186 261.221,119.45 261.221,119.45L252.695,124.999C252.695,124.999 252.602,125.225 252.613,125.481C248.196,127.922 244.073,130.314 241.914,131.857C238.591,134.232 236.67,136.575 235.606,138.216C234.142,136.08 232.763,132.777 232.657,131.845C232.487,130.347 232.61,128.258 235.437,126.125C238.262,123.993 241.653,122.024 243.608,120.696C244.492,120.096 248.625,115.859 249.42,114.979Z" style="fill:rgb(237,28,36);fill-rule:nonzero;"/>
        </g>
        <g transform="matrix(4.16667,0,0,4.16667,0,0)">
            <path d="M273.152,102.88C271.989,103.766 269.69,105.822 268.751,107.023C267.931,108.07 267.386,110.238 267.265,111.935C267.124,113.922 268.533,117.967 269.095,118.732C269.817,119.719 271.042,120.897 273.901,120.613C276.761,120.329 279.868,119.636 281.765,119.352C282.623,119.223 287.421,119.474 288.379,119.562C289.642,119.677 291.195,119.812 291.263,118.554C291.31,117.692 290.105,117.562 287.576,117.283C286.182,117.13 285.342,117.073 284.68,116.914C284.105,116.775 283.733,116.186 283.904,115.621C283.952,115.464 284.027,115.309 284.142,115.17C284.656,114.541 289.99,113.482 290.934,113.293C291.877,113.103 294.046,112.647 294.046,112.647C294.046,112.647 295.861,112.515 295.43,111.066C295.065,109.846 292.957,110.397 292.957,110.397L284.816,111.782C284.816,111.782 283.911,111.39 284.65,110.595C285.204,110 294.289,106.847 294.289,106.847C294.289,106.847 296.195,106.177 295.787,104.966C295.378,103.755 293.743,104.255 292.813,104.588C291.907,104.912 284.977,107.097 284.977,107.097C284.977,107.097 283.28,107.458 284.215,106.211C285.15,104.963 290.047,101.926 290.047,101.926C290.047,101.926 291.486,100.917 290.725,100.03C289.963,99.144 287.822,100.367 287.822,100.367L280.957,104.416C280.957,104.416 279.584,105.13 278.364,105.443C277.158,105.753 275.67,106.48 275.781,105.603C275.997,103.898 277.713,102.765 278.329,101.212C278.709,100.253 278.954,98.797 277.778,98.571C276.454,98.318 276.061,100.667 273.152,102.88Z" style="fill:rgb(238,40,124);fill-rule:nonzero;"/>
        </g>
        <g transform="matrix(4.16667,0,0,4.16667,0,0)">
            <path d="M287.576,117.283C286.182,117.13 285.342,117.073 284.68,116.914C284.105,116.775 283.733,116.186 283.904,115.621C283.952,115.464 284.026,115.309 284.142,115.17C284.656,114.541 289.99,113.482 290.934,113.292C291.877,113.103 294.046,112.647 294.046,112.647C294.046,112.647 295.861,112.515 295.43,111.066C295.065,109.846 292.956,110.397 292.956,110.397L284.816,111.782C284.816,111.782 284.302,111.557 284.368,111.106C278.257,112.398 271.59,113.333 267.439,113.852C267.816,115.839 268.683,118.17 269.095,118.732C269.817,119.719 271.042,120.897 273.901,120.613C276.761,120.329 279.868,119.636 281.765,119.352C282.623,119.223 287.421,119.474 288.379,119.562C289.642,119.677 291.195,119.812 291.263,118.554C291.31,117.692 290.106,117.562 287.576,117.283Z" style="fill:rgb(158,30,99);fill-rule:nonzero;"/>
        </g>
        <g transform="matrix(4.16667,0,0,4.16667,0,0)">
            <path d="M225.732,145.461C224.794,146.008 222.911,147.317 222.109,148.117C221.409,148.815 220.81,150.365 220.567,151.606C220.282,153.059 220.955,156.171 221.299,156.786C221.743,157.58 222.539,158.56 224.675,158.61C226.81,158.661 229.165,158.431 230.59,158.394C231.234,158.377 234.751,158.998 235.45,159.15C236.372,159.349 237.506,159.59 237.67,158.668C237.782,158.036 236.906,157.831 235.064,157.396C234.05,157.156 233.436,157.038 232.962,156.86C232.551,156.706 232.33,156.237 232.508,155.836C232.557,155.725 232.626,155.617 232.724,155.525C233.16,155.108 237.191,154.811 237.904,154.756C238.618,154.702 240.259,154.563 240.259,154.563C240.259,154.563 241.61,154.63 241.423,153.522C241.266,152.589 239.659,152.804 239.659,152.804L233.528,153.087C233.528,153.087 232.896,152.715 233.514,152.196C233.977,151.807 240.965,150.307 240.965,150.307C240.965,150.307 242.433,149.985 242.24,149.055C242.049,148.125 240.798,148.344 240.082,148.505C239.384,148.663 234.072,149.646 234.072,149.646C234.072,149.646 232.788,149.757 233.591,148.922C234.395,148.087 238.282,146.291 238.282,146.291C238.282,146.291 239.437,145.677 238.955,144.954C238.474,144.231 236.783,144.938 236.783,144.938L231.351,147.302C231.351,147.302 230.273,147.704 229.345,147.825C228.427,147.944 227.263,148.344 227.424,147.708C227.738,146.469 229.107,145.79 229.703,144.7C230.07,144.027 230.384,142.975 229.536,142.702C228.582,142.395 228.079,144.092 225.732,145.461Z" style="fill:rgb(238,40,124);fill-rule:nonzero;"/>
        </g>
        <g transform="matrix(4.16667,0,0,4.16667,0,0)">
            <path d="M235.064,157.396C234.05,157.156 233.436,157.038 232.962,156.86C232.551,156.706 232.33,156.237 232.508,155.836C232.557,155.725 232.626,155.617 232.724,155.525C233.16,155.108 237.191,154.811 237.904,154.756C238.618,154.702 240.259,154.563 240.259,154.563C240.259,154.563 241.61,154.63 241.423,153.522C241.266,152.589 239.659,152.804 239.659,152.804L233.528,153.087C233.528,153.087 233.17,152.875 233.259,152.547C228.634,152.945 223.631,153.029 220.521,153.036C220.619,154.536 221.046,156.334 221.299,156.786C221.743,157.58 222.539,158.56 224.675,158.61C226.81,158.661 229.165,158.431 230.59,158.394C231.234,158.377 234.751,158.998 235.45,159.15C236.372,159.349 237.506,159.589 237.67,158.668C237.782,158.036 236.906,157.831 235.064,157.396Z" style="fill:rgb(158,30,99);fill-rule:nonzero;"/>
        </g>
        <g transform="matrix(4.16667,0,0,4.16667,0,0)">
            <path d="M291.749,151.188C289.933,151.215 286.107,150.967 284.268,150.514C282.662,150.119 280.466,148.418 279.047,146.851C277.385,145.017 275.66,139.98 275.621,138.802C275.572,137.282 275.865,135.191 278.879,133.275C281.892,131.359 285.462,129.653 287.535,128.476C288.473,127.944 292.972,124.018 293.842,123.197C294.987,122.115 296.403,120.792 297.435,121.97C298.141,122.778 297.063,123.828 294.804,126.041C293.558,127.261 292.78,127.96 292.255,128.624C291.801,129.2 291.889,130.062 292.489,130.483C292.655,130.6 292.848,130.693 293.067,130.742C294.053,130.962 300.08,127.906 301.148,127.367C302.217,126.829 304.686,125.611 304.686,125.611C304.686,125.611 306.563,124.348 307.252,126.096C307.831,127.568 305.348,128.647 305.348,128.647L296.325,133.537C296.325,133.537 295.74,134.614 297.073,134.825C298.071,134.983 309.373,131.095 309.373,131.095C309.373,131.095 311.751,130.289 312.28,131.786C312.81,133.283 310.828,134.049 309.663,134.437C308.528,134.815 300.076,137.994 300.076,137.994C300.076,137.994 298.14,138.943 300.012,139.446C301.883,139.948 309,139.162 309,139.162C309,139.162 311.182,139.044 311.117,140.495C311.053,141.947 308.021,142.393 308.021,142.393L298.202,143.699C298.202,143.699 296.312,144.055 294.879,144.684C293.462,145.306 291.45,145.737 292.23,146.509C293.75,148.012 296.297,147.803 298.091,148.849C299.198,149.495 300.555,150.731 299.578,151.853C298.477,153.117 296.291,151.121 291.749,151.188Z" style="fill:rgb(2,110,48);fill-rule:nonzero;"/>
        </g>
        <g transform="matrix(4.16667,0,0,4.16667,0,0)">
            <path d="M293.842,123.197C294.987,122.115 296.403,120.792 297.435,121.97C298.141,122.778 297.063,123.828 294.804,126.041C293.558,127.261 292.78,127.96 292.255,128.624C291.801,129.2 291.889,130.062 292.489,130.483C292.655,130.6 292.848,130.693 293.067,130.742C294.053,130.962 300.08,127.906 301.148,127.367C302.217,126.829 304.686,125.611 304.686,125.611C304.686,125.611 306.563,124.348 307.252,126.096C307.831,127.568 305.348,128.647 305.348,128.647L296.325,133.537C296.325,133.537 296.213,133.757 296.204,134.016C291.564,136.114 287.226,138.185 284.93,139.563C281.395,141.683 279.274,143.883 278.072,145.447C276.771,143.181 275.652,139.748 275.622,138.802C275.572,137.282 275.865,135.191 278.879,133.275C281.892,131.359 285.463,129.653 287.535,128.476C288.473,127.944 292.972,124.018 293.842,123.197Z" style="fill:rgb(8,129,59);fill-rule:nonzero;"/>
        </g>
        <g transform="matrix(4.16667,0,0,4.16667,0,0)">
            <path d="M307.81,168.904C306.133,168.161 302.48,166.88 300.593,166.573C298.945,166.305 296.232,167.018 294.295,167.912C292.026,168.96 288.434,172.957 287.932,174.036C287.285,175.428 286.73,177.486 288.772,180.458C290.815,183.429 293.457,186.424 294.918,188.338C295.578,189.202 298.206,194.628 298.689,195.734C299.327,197.192 300.119,198.981 301.542,198.294C302.519,197.823 301.933,196.422 300.707,193.472C300.032,191.847 299.586,190.89 299.361,190.066C299.166,189.351 299.589,188.585 300.313,188.431C300.514,188.389 300.729,188.377 300.952,188.419C301.955,188.604 306.346,193.826 307.126,194.748C307.905,195.67 309.719,197.778 309.719,197.778C309.719,197.778 310.963,199.693 312.293,198.341C313.413,197.204 311.532,195.219 311.532,195.219L305.084,187.11C305.084,187.11 304.967,185.879 306.288,186.21C307.277,186.458 316.239,194.535 316.239,194.535C316.239,194.535 318.13,196.225 319.214,195.044C320.297,193.861 318.759,192.366 317.831,191.546C316.926,190.747 310.33,184.452 310.33,184.452C310.33,184.452 308.906,182.806 310.844,183.078C312.781,183.351 319.081,186.895 319.081,186.895C319.081,186.895 321.062,187.867 321.576,186.493C322.09,185.119 319.45,183.506 319.45,183.506L310.845,178.412C310.845,178.412 309.229,177.335 308.146,176.183C307.076,175.045 305.377,173.849 306.407,173.441C308.413,172.646 310.696,173.847 312.776,173.584C314.061,173.422 315.809,172.81 315.345,171.381C314.822,169.772 312.003,170.762 307.81,168.904Z" style="fill:rgb(251,176,64);fill-rule:nonzero;"/>
        </g>
        <g transform="matrix(4.16667,0,0,4.16667,0,0)">
            <path d="M300.707,193.472C300.032,191.847 299.586,190.89 299.361,190.066C299.166,189.351 299.589,188.585 300.313,188.431C300.514,188.389 300.729,188.377 300.952,188.419C301.955,188.605 306.346,193.826 307.126,194.748C307.905,195.67 309.719,197.778 309.719,197.778C309.719,197.778 310.963,199.693 312.293,198.341C313.413,197.204 311.532,195.219 311.532,195.219L305.084,187.11C305.084,187.11 305.02,186.409 305.557,186.208C300.438,180.274 295.376,173.511 292.293,169.264C290.338,170.88 288.301,173.243 287.932,174.036C287.285,175.428 286.73,177.486 288.772,180.458C290.815,183.429 293.458,186.424 294.918,188.338C295.578,189.202 298.206,194.628 298.689,195.734C299.327,197.192 300.119,198.981 301.542,198.294C302.519,197.823 301.933,196.422 300.707,193.472Z" style="fill:rgb(247,147,29);fill-rule:nonzero;"/>
        </g>
        <g transform="matrix(4.16667,0,0,4.16667,0,0)">
            <path d="M71.672,143.549C73.246,143.78 76.595,144.002 78.243,143.818C79.682,143.659 81.782,142.433 83.192,141.235C84.845,139.833 86.917,135.658 87.085,134.64C87.301,133.326 87.286,131.479 84.889,129.471C82.492,127.464 79.587,125.576 77.923,124.318C77.17,123.749 73.714,119.828 73.052,119.016C72.181,117.946 71.103,116.636 70.074,117.541C69.368,118.161 70.183,119.195 71.893,121.375C72.835,122.575 73.43,123.271 73.809,123.907C74.138,124.459 73.963,125.196 73.394,125.494C73.236,125.576 73.059,125.636 72.863,125.653C71.982,125.731 67.1,122.39 66.234,121.801C65.368,121.212 63.363,119.873 63.363,119.873C63.363,119.873 61.879,118.562 61.082,120.001C60.411,121.212 62.443,122.433 62.443,122.433L69.716,127.707C69.716,127.707 70.1,128.709 68.919,128.739C68.035,128.762 58.67,124.098 58.67,124.098C58.67,124.098 56.698,123.126 56.067,124.365C55.438,125.605 57.07,126.496 58.036,126.965C58.978,127.422 65.952,131.147 65.952,131.147C65.952,131.147 67.523,132.192 65.842,132.414C64.16,132.637 58.073,131.141 58.073,131.141C58.073,131.141 56.192,130.79 56.083,132.057C55.973,133.324 58.553,134.058 58.553,134.058L66.926,136.313C66.926,136.313 68.526,136.837 69.699,137.547C70.857,138.249 72.554,138.853 71.789,139.433C70.298,140.564 68.111,140.092 66.435,140.795C65.4,141.229 64.082,142.147 64.802,143.233C65.613,144.455 67.738,142.973 71.672,143.549Z" style="fill:rgb(158,30,99);fill-rule:nonzero;"/>
        </g>
        <g transform="matrix(4.16667,0,0,4.16667,0,0)">
            <path d="M71.893,121.375C72.835,122.575 73.429,123.271 73.809,123.907C74.138,124.459 73.963,125.197 73.394,125.494C73.236,125.576 73.059,125.636 72.863,125.653C71.982,125.731 67.1,122.39 66.234,121.801C65.368,121.212 63.363,119.873 63.363,119.873C63.363,119.873 61.879,118.562 61.082,120.001C60.411,121.212 62.443,122.433 62.443,122.433L69.716,127.707C69.716,127.707 69.933,128.277 69.531,128.57C75.187,132.338 80.988,136.809 84.551,139.64C85.808,137.836 86.961,135.388 87.085,134.64C87.301,133.326 87.286,131.479 84.889,129.471C82.492,127.464 79.587,125.576 77.923,124.318C77.17,123.749 73.714,119.828 73.052,119.016C72.181,117.946 71.103,116.636 70.074,117.541C69.368,118.161 70.183,119.195 71.893,121.375Z" style="fill:rgb(238,40,124);fill-rule:nonzero;"/>
        </g>
        <g transform="matrix(4.16667,0,0,4.16667,0,0)">
            <path d="M259.657,192.296C258.778,190.871 257.168,187.729 256.657,186.06C256.211,184.604 256.519,182.063 257.088,180.201C257.754,178.02 260.923,174.276 261.836,173.69C263.015,172.932 264.807,172.176 267.745,173.654C270.685,175.133 273.72,177.151 275.63,178.234C276.494,178.724 281.724,180.427 282.784,180.728C284.181,181.124 285.896,181.618 285.451,182.99C285.146,183.93 283.808,183.575 280.989,182.833C279.436,182.423 278.517,182.138 277.742,182.037C277.072,181.949 276.433,182.426 276.383,183.1C276.369,183.287 276.386,183.483 276.451,183.68C276.743,184.563 282.007,187.886 282.937,188.477C283.867,189.068 285.998,190.446 285.998,190.446C285.998,190.446 287.884,191.333 286.826,192.704C285.936,193.857 283.909,192.402 283.909,192.402L275.779,187.577C275.779,187.577 274.651,187.623 275.114,188.777C275.461,189.64 283.874,196.742 283.874,196.742C283.874,196.742 285.636,198.242 284.701,199.368C283.767,200.494 282.225,199.289 281.368,198.551C280.533,197.832 274.026,192.649 274.026,192.649C274.026,192.649 272.361,191.566 272.848,193.283C273.334,195.001 277.318,200.258 277.318,200.258C277.318,200.258 278.442,201.928 277.264,202.563C276.085,203.197 274.301,201.011 274.301,201.011L268.629,193.862C268.629,193.862 267.455,192.535 266.28,191.698C265.119,190.872 263.827,189.484 263.586,190.466C263.115,192.378 264.483,194.293 264.504,196.206C264.517,197.387 264.18,199.044 262.83,198.801C261.311,198.528 261.855,195.857 259.657,192.296Z" style="fill:rgb(190,30,45);fill-rule:nonzero;"/>
        </g>
        <g transform="matrix(4.16667,0,0,4.16667,0,0)">
            <path d="M282.784,180.728C284.181,181.124 285.896,181.618 285.451,182.99C285.146,183.931 283.808,183.575 280.989,182.833C279.436,182.423 278.517,182.138 277.742,182.037C277.072,181.949 276.433,182.426 276.383,183.1C276.369,183.287 276.386,183.484 276.451,183.68C276.743,184.563 282.007,187.886 282.937,188.477C283.867,189.068 285.998,190.446 285.998,190.446C285.998,190.446 287.884,191.333 286.826,192.704C285.936,193.857 283.909,192.402 283.909,192.402L275.779,187.577C275.779,187.577 275.553,187.592 275.344,187.707C271.493,185.029 267.805,182.575 265.631,181.41C262.285,179.617 259.543,178.979 257.737,178.767C258.915,176.668 261.103,174.161 261.836,173.69C263.015,172.932 264.807,172.176 267.745,173.655C270.685,175.133 273.72,177.151 275.63,178.234C276.494,178.724 281.724,180.427 282.784,180.728Z" style="fill:rgb(237,28,36);fill-rule:nonzero;"/>
        </g>
        <g transform="matrix(4.16667,0,0,4.16667,0,0)">
            <path d="M308.631,164.616C307.537,164.39 305.274,163.73 304.231,163.213C303.32,162.761 302.23,161.446 301.588,160.317C300.835,158.994 300.474,155.741 300.607,155.029C300.781,154.11 301.236,152.895 303.3,152.148C305.364,151.401 307.735,150.854 309.136,150.424C309.77,150.231 312.993,148.476 313.625,148.099C314.458,147.603 315.484,146.998 315.945,147.843C316.262,148.422 315.475,148.908 313.823,149.935C312.912,150.5 312.353,150.816 311.948,151.144C311.599,151.428 311.536,151.958 311.841,152.291C311.925,152.383 312.027,152.465 312.152,152.524C312.715,152.787 316.74,151.758 317.453,151.578C318.166,151.398 319.811,150.997 319.811,150.997C319.811,150.997 321.105,150.489 321.285,151.63C321.437,152.591 319.802,152.907 319.802,152.907L313.734,154.636C313.734,154.636 313.24,155.204 314.012,155.508C314.589,155.736 321.891,154.914 321.891,154.914C321.891,154.914 323.426,154.747 323.543,155.716C323.66,156.686 322.369,156.88 321.618,156.958C320.887,157.033 315.39,157.811 315.39,157.811C315.39,157.811 314.102,158.122 315.157,158.674C316.213,159.226 320.589,159.704 320.589,159.704C320.589,159.704 321.914,159.925 321.682,160.787C321.449,161.65 319.57,161.512 319.57,161.512L313.504,160.985C313.504,160.985 312.322,160.945 311.378,161.131C310.444,161.316 309.18,161.306 309.545,161.873C310.256,162.978 311.812,163.193 312.749,164.06C313.327,164.595 313.976,165.518 313.239,166.061C312.41,166.672 311.365,165.183 308.631,164.616Z" style="fill:rgb(117,76,40);fill-rule:nonzero;"/>
        </g>
        <g transform="matrix(4.16667,0,0,4.16667,0,0)">
            <path d="M313.625,148.099C314.458,147.603 315.484,146.998 315.945,147.843C316.262,148.422 315.475,148.908 313.823,149.935C312.912,150.5 312.353,150.816 311.948,151.144C311.599,151.429 311.537,151.958 311.841,152.291C311.925,152.383 312.027,152.465 312.153,152.524C312.715,152.787 316.74,151.758 317.453,151.578C318.166,151.398 319.811,150.997 319.811,150.997C319.811,150.997 321.105,150.489 321.285,151.63C321.437,152.591 319.802,152.907 319.802,152.907L313.734,154.636C313.734,154.636 313.638,154.753 313.598,154.907C310.534,155.546 307.653,156.21 306.092,156.729C303.687,157.529 302.121,158.567 301.19,159.344C300.713,157.811 300.5,155.601 300.607,155.029C300.781,154.11 301.236,152.895 303.3,152.148C305.364,151.401 307.735,150.854 309.136,150.424C309.77,150.231 312.993,148.476 313.625,148.099Z" style="fill:rgb(138,93,59);fill-rule:nonzero;"/>
        </g>
        <g transform="matrix(4.16667,0,0,4.16667,0,0)">
            <path d="M220.784,116.247C220.653,117.407 220.187,119.823 219.749,120.958C219.367,121.949 218.105,123.21 216.993,123.987C215.69,124.898 212.342,125.588 211.589,125.517C210.616,125.426 209.309,125.07 208.332,122.996C207.355,120.921 206.558,118.508 205.977,117.093C205.713,116.453 203.576,113.27 203.124,112.649C202.528,111.831 201.8,110.822 202.634,110.261C203.205,109.876 203.787,110.648 205.014,112.266C205.689,113.159 206.071,113.711 206.452,114.099C206.782,114.435 207.338,114.448 207.655,114.1C207.743,114.004 207.818,113.889 207.867,113.753C208.087,113.143 206.628,109.056 206.372,108.332C206.115,107.609 205.54,105.936 205.54,105.936C205.54,105.936 204.887,104.639 206.057,104.341C207.04,104.091 207.527,105.761 207.527,105.761L209.911,111.904C209.911,111.904 210.55,112.363 210.792,111.531C210.974,110.909 209.412,103.396 209.412,103.396C209.412,103.396 209.091,101.815 210.087,101.599C211.084,101.383 211.412,102.708 211.564,103.481C211.713,104.234 213.054,109.876 213.054,109.876C213.054,109.876 213.502,111.185 213.974,110.034C214.445,108.883 214.52,104.286 214.52,104.286C214.52,104.286 214.621,102.886 215.541,103.045C216.46,103.204 216.499,105.171 216.499,105.171L216.536,111.531C216.536,111.531 216.609,112.763 216.895,113.728C217.176,114.68 217.288,115.997 217.843,115.562C218.923,114.716 218.996,113.076 219.807,112.019C220.309,111.365 221.205,110.602 221.841,111.315C222.557,112.118 221.109,113.349 220.784,116.247Z" style="fill:rgb(251,176,64);fill-rule:nonzero;"/>
        </g>
        <g transform="matrix(4.16667,0,0,4.16667,0,0)">
            <path d="M205.014,112.266C205.689,113.159 206.071,113.711 206.452,114.099C206.782,114.435 207.339,114.448 207.655,114.1C207.743,114.004 207.818,113.889 207.867,113.753C208.087,113.143 206.628,109.056 206.372,108.332C206.115,107.608 205.54,105.936 205.54,105.936C205.54,105.936 204.887,104.639 206.057,104.341C207.04,104.091 207.527,105.761 207.527,105.761L209.911,111.904C209.911,111.904 210.275,112.164 210.559,111.934C212.176,116.648 214.265,121.598 215.608,124.653C214.094,125.208 212.143,125.569 211.589,125.517C210.616,125.426 209.309,125.07 208.332,122.996C207.355,120.921 206.558,118.508 205.977,117.093C205.713,116.453 203.576,113.27 203.124,112.649C202.528,111.831 201.8,110.822 202.634,110.261C203.205,109.876 203.787,110.648 205.014,112.266Z" style="fill:rgb(254,199,115);fill-rule:nonzero;"/>
        </g>
        <g transform="matrix(4.16667,0,0,4.16667,0,0)">
            <path d="M254.079,187.872C253.793,186.833 253.017,184.698 252.454,183.726C251.963,182.878 250.63,181.911 249.503,181.363C248.184,180.722 245.031,180.577 244.354,180.75C243.481,180.974 242.341,181.488 241.751,183.521C241.16,185.553 240.782,187.868 240.457,189.243C240.31,189.864 238.822,193.076 238.499,193.707C238.074,194.539 237.556,195.564 238.397,195.955C238.975,196.223 239.394,195.436 240.277,193.783C240.765,192.871 241.033,192.313 241.324,191.904C241.576,191.55 242.081,191.457 242.421,191.729C242.515,191.804 242.6,191.898 242.664,192.014C242.953,192.539 242.214,196.475 242.085,197.172C241.956,197.87 241.673,199.478 241.673,199.478C241.673,199.478 241.266,200.755 242.374,200.857C243.308,200.942 243.51,199.35 243.51,199.35L244.795,193.404C244.795,193.404 245.312,192.893 245.652,193.616C245.907,194.158 245.571,201.234 245.571,201.234C245.571,201.234 245.507,202.721 246.446,202.774C247.387,202.826 247.493,201.571 247.52,200.845C247.547,200.136 247.953,194.799 247.953,194.799C247.953,194.799 248.172,193.54 248.769,194.522C249.365,195.503 250.099,199.683 250.099,199.683C250.099,199.683 250.394,200.944 251.209,200.667C252.024,200.389 251.775,198.59 251.775,198.59L250.889,192.786C250.889,192.786 250.777,191.651 250.897,190.732C251.017,189.822 250.928,188.606 251.497,188.922C252.604,189.537 252.907,191.021 253.801,191.868C254.352,192.391 255.28,192.958 255.757,192.215C256.293,191.38 254.795,190.467 254.079,187.872Z" style="fill:rgb(8,129,59);fill-rule:nonzero;"/>
        </g>
        <g transform="matrix(4.16667,0,0,4.16667,0,0)">
            <path d="M238.499,193.707C238.074,194.539 237.556,195.564 238.397,195.955C238.975,196.223 239.394,195.436 240.277,193.783C240.765,192.871 241.033,192.313 241.324,191.904C241.576,191.55 242.081,191.457 242.421,191.729C242.515,191.804 242.6,191.898 242.664,192.014C242.953,192.539 242.214,196.475 242.085,197.172C241.956,197.87 241.673,199.478 241.673,199.478C241.673,199.478 241.266,200.755 242.374,200.857C243.308,200.942 243.51,199.35 243.51,199.35L244.795,193.404C244.795,193.404 244.901,193.304 245.047,193.256C245.472,190.268 245.93,187.455 246.332,185.921C246.952,183.558 247.853,181.985 248.543,181.042C247.037,180.678 244.898,180.611 244.354,180.75C243.481,180.974 242.341,181.488 241.751,183.521C241.16,185.553 240.782,187.868 240.457,189.243C240.31,189.864 238.822,193.076 238.499,193.707Z" style="fill:rgb(2,110,48);fill-rule:nonzero;"/>
        </g>
    </g>
</svg>
